<svg xmlns="http://www.w3.org/2000/svg" width="150" height="30" fill="none" viewBox="0 0 150 30" class="PaymentMethodLogo ">
  <path fill="var(--paymentMethodLogoColor, #FA5022)" d="M97.16 19.982c-1.742 0-3.156-1.48-3.156-3.31 0-1.829 1.413-3.31 3.155-3.31 1.742 0 3.154 1.483 3.154 3.308 0 1.825-1.413 3.31-3.154 3.31v.002zm3.153-9.335v1.68a4.928 4.928 0 00-1.736-1.463 4.87 4.87 0 00-2.199-.522c-3.133 0-5.561 2.835-5.561 6.328 0 3.493 2.426 6.33 5.561 6.33.819 0 1.624-.206 2.343-.598a4.967 4.967 0 001.783-1.649v1.945h2.99v-12.05l-3.181-.002zm-36.52-3.34h3.189v15.391h-3.189V7.306zm6.855 8.557c0-3.312 2.011-5.522 4.8-5.522 1.73 0 3.095.778 3.92 2.101.825-1.323 2.193-2.101 3.922-2.101 2.791 0 4.8 2.216 4.8 5.522v6.834h-3.189v-7.18c0-1.292-.847-2.136-1.969-2.136-1.123 0-1.97.845-1.97 2.136v7.18h-3.189v-7.18c0-1.292-.846-2.136-1.969-2.136-1.122 0-1.969.845-1.969 2.136v7.18h-3.19l.002-6.834h.001zm-12.63-5.091C57.263 7.915 55.668 7 54.148 7c-1.521 0-3.116.915-3.869 3.774L47 22.697h3.231a4.082 4.082 0 011.428-2.236 4.007 4.007 0 012.49-.869 4.01 4.01 0 012.489.869 4.082 4.082 0 011.428 2.236h3.231L58.02 10.773h-.001zm-3.871 6.044A3.864 3.864 0 0051.5 17.85l1.85-6.938c.178-.663.438-.875.797-.875.359 0 .622.202.797.875l1.852 6.94a3.868 3.868 0 00-2.649-1.035z"></path>
  <title>AlmaPay</title>
</svg>