<svg xmlns="http://www.w3.org/2000/svg" width="150" height="30" fill="none" viewBox="0 0 150 30" class="PaymentMethodLogo ">
  <path fill="var(--paymentMethodLogoColor, #09D)" d="M63.802 21.723h-.35a2.796 2.796 0 01-2.791-2.794v-7.977l1.404.001a1.403 1.403 0 100-2.807H60.66V6.743a1.404 1.404 0 00-2.807 0v1.403H56.45a1.403 1.403 0 000 2.806h1.404v7.977a5.605 5.605 0 005.598 5.6h.35a1.403 1.403 0 100-2.806zM53.275 21.723h-.35a2.795 2.795 0 01-2.792-2.794v-5.19a5.612 5.612 0 00-5.607-5.594h-.35a1.404 1.404 0 100 2.807l.35-.002a2.797 2.797 0 012.666 1.966h-4.091a5.6 5.6 0 00-2.143 10.771 5.6 5.6 0 002.143.426h1.433a5.581 5.581 0 004.013-1.7 5.587 5.587 0 004.378 2.115h.35a1.403 1.403 0 000-2.806zm-8.741-.416H43.1a2.792 2.792 0 110-5.584h4.225v2.793a2.796 2.796 0 01-2.792 2.79zM73.979 7.718a5.607 5.607 0 00-5.599 5.6v5.599a5.599 5.599 0 1011.197 0v-5.598a5.606 5.606 0 00-5.598-5.601zm2.791 11.198a2.79 2.79 0 01-4.777 1.997 2.79 2.79 0 01-.806-1.997v-5.597a2.792 2.792 0 115.583 0v5.597zM98.129 21.723h-.35a2.796 2.796 0 01-2.792-2.794V13.33a5.599 5.599 0 10-11.197 0v9.784a1.403 1.403 0 102.807 0V13.33a2.792 2.792 0 015.583 0v5.599a5.605 5.605 0 005.598 5.6h.35a1.403 1.403 0 100-2.806z"></path>
  <path fill="var(--paymentMethodLogoColor, #F00088)" d="M111.065 24.53a1.403 1.403 0 100-2.806 1.403 1.403 0 000 2.806z"></path>
  <path fill="var(--paymentMethodLogoColor, #09D)" d="M106.902 7.73a5.608 5.608 0 00-5.6 5.6v5.6a5.607 5.607 0 005.6 5.6h.35a1.403 1.403 0 000-2.807h-.35a2.799 2.799 0 01-2.793-2.793v-1.803h6.988a1.407 1.407 0 001.296-.866c.071-.17.107-.353.107-.537V13.33a5.61 5.61 0 00-5.598-5.6zm2.792 6.59h-5.585v-.989a2.795 2.795 0 012.793-2.768 2.79 2.79 0 012.792 2.768v.99z"></path>
  <title>Atone</title>
</svg>