<svg xmlns="http://www.w3.org/2000/svg" width="150" height="30" fill="none" viewBox="0 0 150 30" class="PaymentMethodLogo ">
  <path fill="var(--paymentMethodLogoColor, #EB5505)" fill-rule="evenodd" d="M74.4 12.9h2.025c-.975 1.35-3.3 4.425-5.025 6-1.5 1.425-2.925 2.25-4.8 2.25-.825 0-2.55-.3-2.925-2.175H63.6c0 .037-.019.056-.038.074-.018.02-.037.038-.037.076a6.867 6.867 0 01-5.025 2.174c-2.925 0-3.825-1.2-4.05-2.25h-.075c-.45.6-2.25 2.175-4.575 2.175-.675 0-2.625-.15-3-2.175h-.075c0 .076-.075.15-.075.15-.975 1.05-2.55 2.1-4.875 2.175h-.15c-3.75 0-4.125-2.1-4.125-3.075 0-.974.975-5.474 4.8-7.8 2.25-1.35 5.25-2.024 9.45-2.1h1.125c.075 0 .075.076.075.076l-2.7 9.45c-.375 1.274-.15 1.724.375 1.724.75 0 2.1-1.05 2.925-2.1.3-.524.525-1.05.6-1.274l1.2-4.2c1.105-3.682 4.233-3.677 5.057-3.676h.043c.075 0 .075.076.075.076a70.93 70.93 0 00-.75 2.55c-.75 2.55-1.8 6.074-1.875 6.3-.02.12-.056.271-.095.437-.108.455-.24 1.012-.13 1.287.15.45.525.675 1.125.675 1.05 0 2.7-.75 3.9-2.4a4.25 4.25 0 00.9-1.725c.375-1.05 1.05-3.45 1.05-3.45 1.105-3.681 4.233-3.676 5.057-3.675h.043c.075 0 .075.076.075.076-.097.435-1.1 3.9-1.859 6.524-.417 1.444-.761 2.633-.841 2.926-.3 1.35-.075 1.724.375 1.724.525 0 1.35-.524 1.875-.974 1.5-1.276 3.3-3.6 4.95-5.85h.075zm-27.225 2.624l1.575-5.4c-1.875.3-5.55 1.65-7.275 7.35-.375 1.425-.3 2.325.9 2.325 1.05 0 2.7-.75 3.9-2.4.375-.524.675-1.2.9-1.875zm51.75 6h2.625l-5.1-12.9H94.5l-5.1 12.9h2.625l.9-2.55h5.1l.9 2.55zm-1.65-4.575h-3.6l1.8-4.8 1.8 4.8zm15.225-8.4h-2.85l-3.45 6.526-3.45-6.525H99.9l5.025 9.075v3.9h2.475v-3.9l5.1-9.075zm-22.95 4.5c0 2.476-2.175 4.5-4.875 4.5H81.75v3.9h-2.475V8.55h5.4c2.7 0 4.875 2.026 4.875 4.5zm-7.8-2.4v4.8h2.7c1.5 0 2.625-1.124 2.625-2.4 0-1.274-1.2-2.4-2.625-2.4h-2.7z" clip-rule="evenodd"></path>
  <title>AllPay</title>
</svg>