<svg xmlns="http://www.w3.org/2000/svg" width="150" height="30" fill="none" viewBox="0 0 150 30" class="PaymentMethodLogo ">
  <path fill="var(--paymentMethodLogoColor, #6600F5)" fill-rule="evenodd" d="M56.25 4.5a3.75 3.75 0 00-3.75 3.75V18a.75.75 0 01-1.5 0V8.25C51 5.35 53.35 3 56.25 3h9a.75.75 0 010 1.5h-9z" clip-rule="evenodd"></path>
  <path fill="var(--paymentMethodLogoColor, #DF1A79)" fill-rule="evenodd" d="M98.25 18a.75.75 0 01.75.75v3c0 2.9-2.35 5.25-5.25 5.25H79.5a.75.75 0 010-1.5h14.25a3.75 3.75 0 003.75-3.75v-3a.75.75 0 01.75-.75z" clip-rule="evenodd"></path>
  <path fill="var(--paymentMethodLogoColor, #FFD000)" fill-rule="evenodd" d="M84.75 3.75A.75.75 0 0185.5 3h8.25C96.65 3 99 5.35 99 8.25v5.25a.75.75 0 01-1.5 0V8.25a3.75 3.75 0 00-3.75-3.75H85.5a.75.75 0 01-.75-.75z" clip-rule="evenodd"></path>
  <path fill="var(--paymentMethodLogoColor, #1E1E1E)" d="M54 9a3 3 0 013-3h36a3 3 0 013 3v12a3 3 0 01-3 3H57a3 3 0 01-3-3V9z"></path>
  <path fill="var(--paymentMethodLogoColor, #FEFEFE)" d="M65.707 20.51H60.54v-8.489c0-1.036.433-2.039 1.188-2.749a3.735 3.735 0 012.821-1.014c1.943.122 3.523 1.77 3.523 3.674 0 .605-.084 1.228-.199 1.723a3.77 3.77 0 01-2.166 6.855zm-1.695-1.574h1.695a2.199 2.199 0 001.556-3.746c-.747 1.423-1.811 2.652-3.251 3.746zM62.11 14.54v3.807c1.733-1.106 2.923-2.325 3.716-3.803a2.456 2.456 0 00-.121-.003H62.11zm0-1.574h3.596c.236 0 .466.023.69.064.057-.32.104-.707.104-1.098 0-1.089-.92-2.033-2.051-2.103-.616-.04-1.2.17-1.646.59a2.18 2.18 0 00-.694 1.603v.945zM83.666 11.3c.186.185.28.416.28.69a.918.918 0 01-.28.684c-.186.182-.429.273-.727.273-.297 0-.527-.09-.713-.273a.918.918 0 01-.28-.684.94.94 0 01.28-.69.966.966 0 01.713-.28c.29 0 .54.093.727.28zM72.84 11.3c.186.185.28.416.28.69a.918.918 0 01-.28.684c-.186.182-.428.273-.726.273-.297 0-.528-.09-.714-.273a.918.918 0 01-.279-.684.94.94 0 01.28-.69.966.966 0 01.713-.28c.29 0 .54.093.726.28zM83.74 13.518v6.83h-1.59v-6.57l1.59-.26zM72.91 13.518v6.83h-1.59v-6.57l1.59-.26zM91.008 17.547h-4.123c.05.639.214 1.095.496 1.367.282.274.654.41 1.118.41.29 0 .562-.047.82-.142.256-.096.53-.242.819-.442l.658.907c-.728.589-1.54.883-2.434.883-1.002 0-1.774-.307-2.316-.92-.543-.613-.813-1.45-.813-2.511 0-.671.115-1.275.347-1.81a2.879 2.879 0 011.006-1.255c.44-.303.96-.454 1.565-.454.919 0 1.63.292 2.136.877.505.584.758 1.399.758 2.443 0 .083-.012.298-.037.646v.001zm-1.54-1.106c0-1.152-.427-1.728-1.28-1.728-.389 0-.693.143-.913.43-.22.286-.35.744-.39 1.373h2.583v-.074zM80.015 10.96v7.831c0 .18.127.325.284.325h.252v1.418h-.772c-.745 0-1.35-.691-1.35-1.546v-7.832l1.587-.196zM76.346 10.96v7.831c0 .18.127.325.284.325h.252v1.418h-.772c-.745 0-1.349-.691-1.349-1.546v-7.832l1.586-.196z"></path>
  <title>Billie</title>
</svg>