<svg xmlns="http://www.w3.org/2000/svg" width="150" height="30" fill="none" viewBox="0 0 150 30" class="PaymentMethodLogo ">
  <path fill="var(--paymentMethodLogoColor, #E21836)" d="M59.392 0h11.97c1.671 0 2.71 1.362 2.32 3.039L68.11 26.966C67.717 28.636 66.044 30 64.37 30H52.402c-1.668 0-2.71-1.363-2.32-3.034l5.575-23.927C56.047 1.362 57.72 0 59.392 0z"></path>
  <path fill="var(--paymentMethodLogoColor, #00447C)" d="M70.366 0H84.13c1.67 0 .917 1.362.524 3.038l-5.572 23.927C78.693 28.636 78.814 30 77.14 30H63.375c-1.675 0-2.71-1.363-2.317-3.034L66.63 3.038C67.025 1.362 68.694 0 70.366 0z"></path>
  <path fill="var(--paymentMethodLogoColor, #007B84)" d="M83.585 0h11.97c1.674 0 2.713 1.362 2.32 3.038l-5.572 23.927C91.91 28.636 90.236 30 88.563 30H76.597c-1.674 0-2.713-1.363-2.32-3.034L79.85 3.038C80.24 1.362 81.911 0 83.585 0z"></path>
  <path fill="var(--paymentMethodLogoColor, #FEFEFE)" d="M62.518 7.668c-1.23.013-1.594 0-1.71-.027-.045.212-.876 4.043-.878 4.047-.179.775-.309 1.327-.751 1.684-.25.208-.544.308-.883.308-.546 0-.864-.271-.918-.785l-.01-.177.166-1.044s.872-3.492 1.028-3.953a.33.33 0 00.013-.053c-1.697.015-1.998 0-2.019-.027-.011.037-.053.254-.053.254l-.89 3.935-.077.334-.148 1.092c0 .324.064.588.19.812.406.708 1.563.815 2.217.815.844 0 1.635-.18 2.17-.507.927-.548 1.17-1.405 1.386-2.166l.1-.391s.899-3.627 1.051-4.099c.006-.026.008-.04.016-.052zm3.056 2.926c-.217 0-.612.052-.968.226-.129.067-.25.143-.38.22l.117-.42-.064-.07c-.753.152-.922.172-1.618.27l-.059.04c-.08.67-.152 1.173-.452 2.49-.114.486-.232.976-.351 1.46l.032.062c.713-.038.93-.038 1.55-.027l.05-.055c.079-.403.09-.498.264-1.315.082-.388.253-1.239.337-1.542.155-.072.308-.143.454-.143.347 0 .305.304.291.424-.014.203-.141.865-.271 1.434l-.087.367c-.06.271-.126.535-.187.803l.027.054c.703-.038.917-.038 1.518-.027l.07-.055c.109-.63.14-.799.333-1.716l.097-.422c.188-.825.283-1.243.14-1.584-.15-.382-.511-.474-.843-.474zm3.413.864c-.373.071-.612.12-.849.15-.235.038-.464.072-.825.122l-.029.026-.026.02c-.037.27-.064.502-.114.776a14.2 14.2 0 01-.213 1.065 4.185 4.185 0 01-.17.6c-.046.125-.096.246-.189.593l.022.033.018.029c.338-.016.559-.027.785-.03.227-.008.462 0 .826.003l.031-.026.034-.029c.053-.313.06-.398.093-.55.032-.165.087-.392.221-.998.064-.285.135-.568.2-.859l.21-.86L69 11.49l-.014-.032zm.008-1.165c-.34-.2-.936-.137-1.337.14-.4.271-.445.656-.107.86.334.194.933.136 1.33-.143.4-.277.45-.659.114-.857zm2.054 4.642c.687 0 1.391-.19 1.922-.751.408-.456.595-1.134.66-1.413.21-.926.046-1.358-.16-1.621-.314-.401-.867-.53-1.442-.53-.345 0-1.168.034-1.81.627-.462.427-.676 1.007-.804 1.563-.13.567-.28 1.587.658 1.966.29.125.707.159.976.159zm-.054-2.083c.159-.7.346-1.289.823-1.289.374 0 .401.438.235 1.141-.03.156-.166.737-.35.984-.13.182-.282.293-.451.293-.05 0-.349 0-.353-.443a3.018 3.018 0 01.096-.686zm4.353 1.993l.054-.055c.076-.403.088-.498.257-1.315.084-.388.259-1.239.34-1.542.156-.072.306-.143.457-.143.345 0 .303.303.29.424-.013.203-.14.865-.272 1.434l-.082.367c-.063.271-.131.534-.191.803l.026.054a16.6 16.6 0 011.516-.027l.072-.055c.106-.63.135-.799.333-1.716l.095-.422c.189-.825.285-1.243.145-1.584-.155-.382-.519-.474-.846-.474a2.36 2.36 0 00-.968.226 6.421 6.421 0 00-.377.22l.108-.42-.058-.07c-.753.152-.925.172-1.62.27l-.054.04c-.084.67-.153 1.173-.452 2.49-.115.486-.233.976-.352 1.46l.032.062a17.24 17.24 0 011.547-.027zm5.183.027c.045-.216.308-1.5.31-1.5 0 0 .225-.941.239-.975 0 0 .07-.098.14-.137h.105c.98 0 2.086 0 2.954-.638.59-.438.993-1.084 1.174-1.87.046-.192.08-.421.08-.65 0-.301-.06-.599-.234-.831-.443-.619-1.323-.63-2.34-.635l-.501.005c-1.302.016-1.824.011-2.038-.015l-.053.263-.466 2.164-1.168 4.811c1.136-.014 1.602-.014 1.798.008zm.864-3.838l.494-2.149.016-.11.007-.085.198.02 1.046.091c.404.156.57.558.454 1.084-.106.48-.418.883-.817 1.078-.33.165-.733.179-1.15.179h-.268l.02-.108zm3.087 1.858c-.131.559-.282 1.579.651 1.943.298.126.565.164.836.15.286-.015.551-.159.797-.366l-.067.255.043.055c.671-.028.88-.028 1.607-.023l.066-.05c.106-.624.206-1.23.482-2.425.134-.572.269-1.139.407-1.709l-.022-.062c-.75.139-.952.168-1.674.27l-.055.046-.022.17a1.032 1.032 0 00-.526-.434c-.321-.126-1.076.037-1.724.627-.456.422-.675 1-.8 1.553zm1.577.035c.16-.689.345-1.271.824-1.271.302 0 .462.28.43.755a24.05 24.05 0 01-.087.386c-.048.204-.1.407-.15.61-.052.139-.111.27-.177.357-.123.175-.416.283-.585.283-.048 0-.343 0-.353-.435-.002-.217.042-.44.098-.685zm8.237-2.273l-.058-.066c-.744.15-.878.174-1.56.267l-.051.05-.008.032-.002-.012c-.508 1.173-.494.92-.907 1.843-.003-.042-.003-.068-.005-.113l-.103-2.001-.066-.066c-.778.15-.796.174-1.515.267l-.056.05c-.008.024-.008.05-.013.078l.005.01c.09.46.068.357.158 1.082.042.356.098.714.14 1.065.071.588.11.877.198 1.774-.486.802-.601 1.105-1.068 1.808l.003.007-.33.52c-.037.055-.071.093-.119.109a.496.496 0 01-.215.03h-.183l-.27.902.929.016c.546-.002.889-.258 1.074-.6l.584-1.003h-.009l.062-.07c.393-.847 3.385-5.979 3.385-5.979zm-9.814 11.84h-.395l1.46-4.828h.484l.154-.498.015.553c-.018.342.251.645.958.595h.817l.281-.93h-.307c-.177 0-.26-.044-.249-.14l-.015-.563h-1.513v.003c-.49.01-1.95.047-2.246.126-.359.092-.736.363-.736.363l.148-.498h-1.415l-.295.989-1.48 4.902h-.287l-.281.923h2.82l-.095.308h1.39l.091-.308h.39l.306-.996zm-1.157-3.847a6.325 6.325 0 00-.649.253l.375-1.234h1.125l-.271.899s-.348.02-.58.082zm.021 1.763s-.353.044-.586.097c-.229.07-.658.288-.658.288l.388-1.284h1.13l-.274.899zm-.63 2.096h-1.128l.327-1.084h1.125l-.324 1.084zm2.717-2.995h1.626l-.233.756h-1.648l-.248.828h1.442l-1.091 1.537a.45.45 0 01-.222.185.648.648 0 01-.292.084h-.4l-.275.907h1.046c.544 0 .865-.248 1.102-.573l.749-1.024.16 1.04a.489.489 0 00.27.353c.105.053.213.143.366.157.164.006.282.012.36.012h.515l.309-1.014h-.203c-.117 0-.317-.02-.351-.056-.034-.044-.034-.113-.053-.217l-.163-1.042h-.668l.293-.349h1.645l.253-.828h-1.523l.237-.756h1.518l.282-.934H85.71l-.277.934zm-13.736 3.206l.38-1.263h1.56l.285-.94h-1.561l.238-.776h1.526l.283-.91H70.59l-.277.91h.867l-.231.777h-.87l-.288.955h.867l-.506 1.67c-.068.222.032.306.096.409.065.1.13.166.279.204.153.034.257.054.4.054h1.759l.313-1.04-.78.107c-.15 0-.567-.018-.521-.157zm.18-6.045l-.396.714c-.084.156-.16.253-.23.298-.06.037-.18.053-.353.053h-.206l-.276.914h.686c.329 0 .582-.12.703-.18.13-.07.164-.03.264-.128l.231-.2h2.14l.284-.952h-1.566l.273-.52h-1.555zm3.158 6.063c-.037-.052-.01-.145.045-.337l.585-1.936h2.08a14 14 0 00.664-.018c.153-.016.32-.07.5-.168a.935.935 0 00.364-.336c.09-.124.235-.395.36-.814l.734-2.449-2.158.013s-.665.098-.958.206c-.295.121-.717.458-.717.458l.195-.671h-1.333l-1.867 6.19a3.82 3.82 0 00-.12.52c-.004.113.142.225.236.31.112.084.277.07.436.084.166.012.403.02.73.02h1.025l.314-1.062-.917.087a.241.241 0 01-.198-.097zm1.007-3.58h2.185l-.14.435c-.019.01-.065-.021-.288.005h-1.891l.134-.44zm.438-1.46h2.203l-.159.524s-1.038-.01-1.204.02c-.732.127-1.16.518-1.16.518l.32-1.062zm1.657 3.353a.234.234 0 01-.087.135c-.044.028-.116.038-.223.038h-.311l.018-.53h-1.295l-.052 2.592c-.002.187.016.295.153.382.136.108.558.122 1.126.122h.81l.294-.97-.707.039-.234.013c-.032-.013-.063-.026-.097-.06-.03-.03-.08-.011-.072-.199l.006-.664.74-.03c.4 0 .571-.13.717-.255.14-.118.185-.255.237-.44l.125-.588h-1.018l-.13.415z"></path>
  <title>UnionPay</title>
</svg>