<svg xmlns="http://www.w3.org/2000/svg" width="150" height="30" fill="none" viewBox="0 0 150 30" class="PaymentMethodLogo ">
  <path fill="var(--paymentMethodLogoColor, #000)" fill-rule="evenodd" d="M83.545 2.344a1.5 1.5 0 012.111.2l9.5 11.5a1.5 1.5 0 010 1.911l-9.5 11.5A1.5 1.5 0 0184.5 28h-7a1.5 1.5 0 01-1.156-2.455L85.054 15l-8.26-10h-3.002l7.84 9.016a1.5 1.5 0 010 1.968L72.828 26.11A5.5 5.5 0 0168.678 28H59.5a5.5 5.5 0 01-5.5-5.5v-15A5.5 5.5 0 0159.5 2H65a1.5 1.5 0 010 3h-5.5A2.5 2.5 0 0057 7.5v15a2.5 2.5 0 002.5 2.5h9.177a2.5 2.5 0 001.887-.86L78.512 15 69.368 4.484A1.5 1.5 0 0170.5 2h7c.447 0 .871.2 1.156.545l9.5 11.5a1.5 1.5 0 010 1.91L80.685 25h3.108l8.261-10-8.71-10.545a1.5 1.5 0 01.2-2.111z" clip-rule="evenodd"></path>
  <title>ClickToPay</title>
</svg>