<svg xmlns="http://www.w3.org/2000/svg" width="150" height="30" fill="none" viewBox="0 0 150 30" class="PaymentMethodLogo ">
  <path fill="var(--paymentMethodLogoColor, #0079BE)" d="M32.691 24.916c5.43.026 10.387-4.42 10.387-9.83 0-5.916-4.956-10.005-10.387-10.003h-4.673C22.523 5.081 18 9.172 18 15.086c0 5.41 4.523 9.856 10.018 9.83h4.673z"></path>
  <path fill="var(--paymentMethodLogoColor, #fff)" d="M28.04 5.903c-5.02.002-9.09 4.065-9.091 9.08.001 5.013 4.07 9.076 9.091 9.077 5.023-.001 9.093-4.064 9.093-9.078 0-5.014-4.07-9.077-9.093-9.079zm-5.762 9.08a5.764 5.764 0 013.7-5.371v10.74a5.761 5.761 0 01-3.7-5.37zm7.825 5.37V9.613a5.76 5.76 0 013.702 5.37 5.763 5.763 0 01-3.702 5.372z"></path>
  <path fill="var(--paymentMethodLogoColor, #211E1F)" fill-rule="evenodd" d="M110.938 21.233h.339c.502 0 .862 0 .862-.592v-9.958c0-1.124-.251-1.196-.882-1.376l-.068-.02v-.286c.716-.232 1.468-.554 1.845-.77l.131-.072c.128-.072.221-.124.261-.124.11 0 .146.108.146.251v12.355c0 .592.393.592.895.592h.302v.465c-.298 0-.602-.01-.91-.018-.318-.01-.641-.018-.969-.018-.644 0-1.288.017-1.952.036v-.465zm-.646-8.781h-.447c-.34-2.091-1.827-2.933-3.832-2.933-2.061 0-5.052 1.377-5.052 5.668 0 3.614 2.581 6.206 5.338 6.206 1.772 0 3.242-1.216 3.6-3.094l.411.107-.411 2.61c-.752.467-2.776.95-3.959.95-4.19 0-6.84-2.701-6.84-6.725 0-3.665 3.277-6.295 6.787-6.295 1.45 0 2.847.467 4.227.95l.178 2.556zm12.646 8.601c-.305 0-.5-.017-.5-.34h-.001v-6.597c0-.197 0-.322-.145-.322-.062 0-.228.017-.486.045a55.37 55.37 0 01-2.306.205v.322l.191.052c.61.167 1.311.358 1.311.68v4.812c-.751.624-1.557 1.09-2.166 1.09-1.557 0-1.557-1.538-1.557-2.076v-4.612c0-.393 0-.518-.198-.518-.104 0-.445.021-.848.046-.503.031-1.103.069-1.462.079v.34c1.002.089 1.073.536 1.073 1v4.58c0 1.501 1.003 2.126 1.97 2.126 1.272 0 2.097-.625 3.171-1.5v1.446l.089.054c.341-.106 1.81-.482 2.581-.553v-.376c-.12 0-.248.004-.373.009-.121.004-.239.008-.344.008zm3.063-6.24c.716-.608 1.683-1.288 2.669-1.288 2.078 0 3.33 1.808 3.33 3.755 0 2.342-1.719 4.685-4.281 4.685-1.125 0-1.799-.31-2.262-.523-.082-.038-.157-.073-.227-.102l-.537.41-.375-.196c.159-1.055.25-2.092.25-3.182v-7.69c0-1.122-.252-1.194-.881-1.375l-.069-.02v-.286c.719-.232 1.469-.554 1.845-.77l.141-.077c.124-.07.213-.12.254-.12.107 0 .143.109.143.252v6.526zm0 4.863c0 .68.644 1.825 1.844 1.825 1.917 0 2.722-1.879 2.722-3.47 0-1.931-1.467-3.54-2.864-3.54-.665 0-1.219.43-1.702.842v4.343zm-64.243 1.557h.34c.5 0 .859 0 .859-.592v-4.845c0-.753-.247-.885-.851-1.208l-.08-.043v-.286c.84-.253 1.845-.59 1.915-.644a.638.638 0 01.323-.09c.089 0 .126.108.126.251v6.865c0 .592.394.592.895.592h.305v.465c-.301 0-.606-.01-.915-.018-.318-.009-.64-.018-.965-.018-.645 0-1.29.017-1.952.036v-.465zm1.916-10.462c-.467 0-.877-.428-.877-.893 0-.448.43-.86.877-.86.464 0 .878.377.878.86a.894.894 0 01-.878.893zM50.4 11.2c0-1.5-.731-1.509-1.483-1.517l-.163-.003v-.465c.699.035 1.414.035 2.114.035.323 0 .695-.007 1.12-.014.566-.01 1.223-.02 1.979-.02 4.637 0 7.162 3.092 7.162 6.258 0 1.771-1.038 6.223-7.378 6.223-.466 0-.913-.01-1.351-.018-.421-.009-.834-.017-1.246-.017-.786 0-1.557.016-2.342.034h-.058v-.463l.044-.005c1.044-.105 1.551-.155 1.602-1.355V11.2zm1.756 8.387c0 1.377.986 1.538 1.863 1.538 3.87 0 5.14-2.915 5.14-5.58 0-3.343-2.15-5.756-5.606-5.756-.534 0-.859.028-1.121.05-.099.008-.188.016-.276.021v9.727zm14.097-4.864c.84.34 1.038.518 1.038 1.18v4.738c0 .592-.358.592-.86.592h-.322v.464c.644-.018 1.29-.035 1.934-.035.325 0 .645.009.963.018.314.009.625.017.936.017v-.464h-.322c-.502 0-.898 0-.898-.592v-5.292c.594-.393 1.507-.858 2.08-.858 1.022 0 1.646.5 1.646 1.52v4.63c0 .592-.356.592-.86.592h-.32v.465c.643-.019 1.288-.036 1.934-.036.323 0 .643.009.96.018.314.009.626.018.938.018v-.465h-.322c-.502 0-.896 0-.896-.592v-4.613c0-1.394-.538-2.503-2.058-2.503-1.201 0-2.08.609-3.102 1.341v-1.162c0-.143-.052-.18-.106-.18-.815.357-1.516.585-2.242.82l-.121.04v.34zm10.209 2.04c-.038.16-.038.428 0 1.037.105 1.698 1.2 3.092 2.631 3.092.986 0 1.758-.536 2.42-1.197l.25.25c-.825 1.09-1.845 2.02-3.313 2.02-2.849 0-3.422-2.754-3.422-3.898 0-3.505 2.364-4.542 3.617-4.542 1.452 0 3.01.911 3.028 2.807 0 .108 0 .214-.017.323l-.163.107h-5.031zm3.17-.574c.447 0 .5-.232.5-.446 0-.912-.555-1.646-1.558-1.646-1.092 0-1.844.804-2.059 2.092h3.117zm2.937 5.044h-.484v.465a76.447 76.447 0 012.131-.036c.64 0 1.263.012 2.018.026l.489.01v-.465H85.72c-.502 0-.86 0-.86-.592v-4.2c0-1.074 1.002-1.485 1.307-1.485.322 0 .478.113.63.224.143.104.283.206.553.206.502 0 .841-.43.841-.913 0-.645-.572-.948-1.02-.948-1.092 0-1.845 1.145-2.292 1.842h-.038v-1.609c0-.18-.053-.233-.159-.233-.075 0-.267.098-.58.259a23.25 23.25 0 01-1.607.761v.268c.056.03.13.058.212.09.306.117.719.277.719.714v5.024c0 .592-.358.592-.858.592zm6.412-2.022c.233 1.18.948 2.182 2.257 2.182 1.054 0 1.448-.643 1.448-1.27 0-.973-.83-1.353-1.725-1.762-1.045-.478-2.178-.996-2.178-2.547 0-1.002.807-2.29 2.776-2.29.573 0 1.342.163 2.04.52l.127 1.823h-.412c-.179-1.125-.805-1.77-1.953-1.77-.716 0-1.396.412-1.396 1.18 0 .97.892 1.353 1.85 1.763 1.109.474 2.305.987 2.305 2.493 0 1.18-.95 2.432-3.081 2.432-.716 0-1.558-.25-2.184-.607l-.198-2.057.324-.09z" clip-rule="evenodd"></path>
  <title>DinersClub</title>
</svg>