<svg xmlns="http://www.w3.org/2000/svg" width="150" height="30" fill="none" viewBox="0 0 150 30" class="PaymentMethodLogo ">
  <path fill="var(--paymentMethodLogoColor, #0A2540)" d="M59.714 14.552c0-3.896 2.942-7.043 6.767-6.743 1.03 0 2.207.15 3.09.75v2.996c-.736-.899-1.913-1.498-3.09-1.498-2.353.15-4.266 2.247-4.119 4.644v.3c0 2.397 1.913 4.195 4.266 4.195 1.177 0 2.207-.599 2.942-1.498v2.997c-1.03.45-2.059.749-3.236.749-3.678 0-6.62-3.147-6.62-6.892zm26.48-6.743l3.383 8.99 3.53-8.99h2.649l-5.443 13.635h-1.324L83.546 7.809h2.648zM54.467 7.5l.245.01c1.324 0 2.648.599 3.678 1.498l-1.324 1.798c-.588-.6-1.324-1.049-2.06-1.049-.882-.15-1.617.6-1.764 1.498 0 .75.44 1.05 1.912 1.648 2.942 1.2 3.678 2.098 3.825 3.896v.45c-.147 2.397-2.06 4.195-4.414 4.045-1.765 0-3.53-.899-4.413-2.547l1.618-1.648c.442 1.049 1.471 1.798 2.648 1.798h.147c.883 0 1.766-.9 1.766-1.948 0-.6-.295-1.049-.736-1.349-.588-.3-1.177-.599-1.765-.749-2.354-.749-3.09-1.798-3.09-3.596v-.15c.148-2.097 1.913-3.745 3.972-3.596l-.245-.009zm-15.054.31c3.53.149 6.326 3.146 6.179 6.742 0 1.947-.883 3.745-2.354 5.094-1.324 1.049-2.942 1.648-4.56 1.498H35V7.81h4.413zm9.71 0v13.334h-2.501V7.81h2.5zm54.871 0v2.247h-4.56v2.996h4.413v2.248h-4.413v3.596h4.56v2.247h-7.061V7.81h7.061zm5.296 0c2.942 0 4.56 1.348 4.56 3.895.147 1.948-1.177 3.596-2.942 3.895l3.972 5.544h-3.089l-3.384-5.394h-.294v5.394h-2.501V7.81h3.678zm-67.67 3.295c-.883-.749-2.207-1.198-3.384-1.048h-.735v8.84h.735c1.177.15 2.501-.3 3.384-1.05.883-.898 1.324-2.097 1.324-3.445a4.693 4.693 0 00-1.324-3.296zm67.228-1.198h-.735v4.045h.735c1.619 0 2.354-.749 2.354-2.097 0-1.199-.735-1.948-2.354-1.948z"></path>
  <path fill="var(--paymentMethodLogoColor, #FFA201)" d="M77.22 7.66c-3.678 0-6.767 2.996-6.767 6.892 0 3.745 2.942 6.892 6.767 7.042 3.825.15 6.767-2.997 6.914-6.893-.147-3.895-3.09-7.042-6.914-7.042z"></path>
  <title>Discover</title>
</svg>