<svg xmlns="http://www.w3.org/2000/svg" width="150" height="30" fill="none" viewBox="0 0 150 30" class="PaymentMethodLogo ">
  <path fill="var(--paymentMethodLogoColor, #0E7AD4)" d="M99.448 18.14c0 1.354.357 2.425 1.07 3.213.731.799 1.697 1.197 2.896 1.197 1.207 0 2.173-.393 2.895-1.183.723-.788 1.085-1.84 1.085-3.158 0-1.318-.362-2.37-1.085-3.16-.731-.797-1.697-1.196-2.895-1.196-1.18 0-2.137.4-2.868 1.197-.733.798-1.098 1.828-1.098 3.09zm-3.157-.056c0-1.959.691-3.623 2.073-4.996 1.381-1.373 3.064-2.06 5.05-2.06 1.994 0 3.687.691 5.077 2.074 1.372 1.382 2.059 3.08 2.059 5.093 0 2.032-.691 3.734-2.072 5.107-1.391 1.364-3.098 2.045-5.119 2.045-2.004 0-3.683-.696-5.036-2.086-1.355-1.374-2.032-3.1-2.032-5.177zm-11.992.055c0 1.299.344 2.357 1.03 3.173.704.825 1.592 1.238 2.662 1.238 1.144 0 2.067-.398 2.772-1.196.705-.826 1.057-1.874 1.057-3.145s-.352-2.32-1.056-3.146c-.706-.806-1.62-1.21-2.745-1.21-1.062 0-1.949.409-2.663 1.225-.704.826-1.057 1.846-1.057 3.061zM91.628 3.75h3.101v21.208h-3.101v-1.42c-1.217 1.207-2.594 1.81-4.13 1.81-1.831 0-3.35-.678-4.557-2.032-1.199-1.382-1.798-3.108-1.798-5.177 0-2.022.6-3.71 1.798-5.065 1.19-1.364 2.685-2.046 4.488-2.046 1.564 0 2.964.65 4.199 1.948V3.75zm-11.002 7.654l-6.067 13.554h-3.087l6.065-13.554h3.088zM77.07 5.768c0-.548.197-1.02.59-1.42.393-.399.865-.598 1.414-.598.558 0 1.034.2 1.427.598.393.39.59.868.59 1.434s-.197 1.048-.59 1.447a1.887 1.887 0 01-1.414.598 1.93 1.93 0 01-1.427-.598 2 2 0 01-.59-1.461zm-13.052 5.636l3.458 7.611 3.445-7.611h3.472L67.45 25.89l-6.89-14.486h3.459zm-8.66 13.553h3.088V11.404H55.36V24.96v-.002zm-.466-19.19c0-.547.196-1.02.59-1.418a1.914 1.914 0 011.414-.599c.557 0 1.033.2 1.427.599.393.39.59.867.59 1.433 0 .566-.197 1.048-.59 1.447a1.885 1.885 0 01-1.414.598c-.558 0-1.034-.2-1.427-.598a1.998 1.998 0 01-.59-1.461zM42.156 18.14c0 1.299.343 2.357 1.03 3.173.704.825 1.591 1.238 2.662 1.238 1.144 0 2.067-.398 2.772-1.196.705-.826 1.057-1.874 1.057-3.145s-.352-2.32-1.057-3.146c-.705-.806-1.62-1.21-2.745-1.21-1.061 0-1.948.409-2.662 1.225-.705.826-1.057 1.846-1.057 3.061zM49.485 3.75h3.101v21.208h-3.101v-1.42c-1.217 1.207-2.594 1.81-4.131 1.81-1.83 0-3.348-.678-4.556-2.032C39.599 21.933 39 20.207 39 18.139c0-2.022.599-3.71 1.798-5.065 1.189-1.363 2.685-2.046 4.487-2.046 1.565 0 2.965.65 4.2 1.948V3.75z"></path>
  <path fill="var(--paymentMethodLogoColor, #0E7AD4)" d="M99.448 18.14c0 1.354.357 2.425 1.07 3.213.731.799 1.697 1.197 2.896 1.197 1.207 0 2.173-.393 2.895-1.183.723-.788 1.085-1.84 1.085-3.158 0-1.318-.362-2.37-1.085-3.16-.731-.797-1.697-1.196-2.895-1.196-1.18 0-2.137.4-2.868 1.197-.733.798-1.098 1.828-1.098 3.09zm-3.157-.056c0-1.959.691-3.623 2.073-4.996 1.381-1.373 3.064-2.06 5.05-2.06 1.994 0 3.687.691 5.077 2.074 1.372 1.382 2.059 3.08 2.059 5.093 0 2.032-.691 3.734-2.072 5.107-1.391 1.364-3.098 2.045-5.119 2.045-2.004 0-3.683-.696-5.036-2.086-1.355-1.374-2.032-3.1-2.032-5.177zm-11.992.055c0 1.299.344 2.357 1.03 3.173.704.825 1.592 1.238 2.662 1.238 1.144 0 2.067-.398 2.772-1.196.705-.826 1.057-1.874 1.057-3.145s-.352-2.32-1.056-3.146c-.706-.806-1.62-1.21-2.745-1.21-1.062 0-1.949.409-2.663 1.225-.704.826-1.057 1.846-1.057 3.061zM91.628 3.75h3.101v21.208h-3.101v-1.42c-1.217 1.207-2.594 1.81-4.13 1.81-1.831 0-3.35-.678-4.557-2.032-1.199-1.382-1.798-3.108-1.798-5.177 0-2.022.6-3.71 1.798-5.065 1.19-1.364 2.685-2.046 4.488-2.046 1.564 0 2.964.65 4.199 1.948V3.75zm-11.002 7.654l-6.067 13.554h-3.087l6.065-13.554h3.088zM77.07 5.768c0-.548.197-1.02.59-1.42.393-.399.865-.598 1.414-.598.558 0 1.034.2 1.427.598.393.39.59.868.59 1.434s-.197 1.048-.59 1.447a1.887 1.887 0 01-1.414.598 1.93 1.93 0 01-1.427-.598 2 2 0 01-.59-1.461zm-13.052 5.636l3.458 7.611 3.445-7.611h3.472L67.45 25.89l-6.89-14.486h3.459zm-8.66 13.553h3.088V11.404H55.36V24.96v-.002zm-.466-19.19c0-.547.196-1.02.59-1.418a1.914 1.914 0 011.414-.599c.557 0 1.033.2 1.427.599.393.39.59.867.59 1.433 0 .566-.197 1.048-.59 1.447a1.885 1.885 0 01-1.414.598c-.558 0-1.034-.2-1.427-.598a1.998 1.998 0 01-.59-1.461zM42.156 18.14c0 1.299.343 2.357 1.03 3.173.704.825 1.591 1.238 2.662 1.238 1.144 0 2.067-.398 2.772-1.196.705-.826 1.057-1.874 1.057-3.145s-.352-2.32-1.057-3.146c-.705-.806-1.62-1.21-2.745-1.21-1.061 0-1.948.409-2.662 1.225-.705.826-1.057 1.846-1.057 3.061zM49.485 3.75h3.101v21.208h-3.101v-1.42c-1.217 1.207-2.594 1.81-4.131 1.81-1.83 0-3.348-.678-4.556-2.032C39.599 21.933 39 20.207 39 18.139c0-2.022.599-3.71 1.798-5.065 1.189-1.363 2.685-2.046 4.487-2.046 1.565 0 2.965.65 4.2 1.948V3.75z"></path>
  <path fill="var(--paymentMethodLogoColor, #0E7AD4)" d="M99.448 18.14c0 1.354.357 2.425 1.07 3.213.731.799 1.697 1.197 2.896 1.197 1.207 0 2.173-.393 2.895-1.183.723-.788 1.085-1.84 1.085-3.158 0-1.318-.362-2.37-1.085-3.16-.731-.797-1.697-1.196-2.895-1.196-1.18 0-2.137.4-2.868 1.197-.733.798-1.098 1.828-1.098 3.09zm-3.157-.056c0-1.959.691-3.623 2.073-4.996 1.381-1.373 3.064-2.06 5.05-2.06 1.994 0 3.687.691 5.077 2.074 1.372 1.382 2.059 3.08 2.059 5.093 0 2.032-.691 3.734-2.072 5.107-1.391 1.364-3.098 2.045-5.119 2.045-2.004 0-3.683-.696-5.036-2.086-1.355-1.374-2.032-3.1-2.032-5.177zm-11.992.055c0 1.299.344 2.357 1.03 3.173.704.825 1.592 1.238 2.662 1.238 1.144 0 2.067-.398 2.772-1.196.705-.826 1.057-1.874 1.057-3.145s-.352-2.32-1.056-3.146c-.706-.806-1.62-1.21-2.745-1.21-1.062 0-1.949.409-2.663 1.225-.704.826-1.057 1.846-1.057 3.061zM91.628 3.75h3.101v21.208h-3.101v-1.42c-1.217 1.207-2.594 1.81-4.13 1.81-1.831 0-3.35-.678-4.557-2.032-1.199-1.382-1.798-3.108-1.798-5.177 0-2.022.6-3.71 1.798-5.065 1.19-1.364 2.685-2.046 4.488-2.046 1.564 0 2.964.65 4.199 1.948V3.75zm-11.002 7.654l-6.067 13.554h-3.087l6.065-13.554h3.088zM77.07 5.768c0-.548.197-1.02.59-1.42.393-.399.865-.598 1.414-.598.558 0 1.034.2 1.427.598.393.39.59.868.59 1.434s-.197 1.048-.59 1.447a1.887 1.887 0 01-1.414.598 1.93 1.93 0 01-1.427-.598 2 2 0 01-.59-1.461zm-13.052 5.636l3.458 7.611 3.445-7.611h3.472L67.45 25.89l-6.89-14.486h3.459zm-8.66 13.553h3.088V11.404H55.36V24.96v-.002zm-.466-19.19c0-.547.196-1.02.59-1.418a1.914 1.914 0 011.414-.599c.557 0 1.033.2 1.427.599.393.39.59.867.59 1.433 0 .566-.197 1.048-.59 1.447a1.885 1.885 0 01-1.414.598c-.558 0-1.034-.2-1.427-.598a1.998 1.998 0 01-.59-1.461zM42.156 18.14c0 1.299.343 2.357 1.03 3.173.704.825 1.591 1.238 2.662 1.238 1.144 0 2.067-.398 2.772-1.196.705-.826 1.057-1.874 1.057-3.145s-.352-2.32-1.057-3.146c-.705-.806-1.62-1.21-2.745-1.21-1.061 0-1.948.409-2.662 1.225-.705.826-1.057 1.846-1.057 3.061zM49.485 3.75h3.101v21.208h-3.101v-1.42c-1.217 1.207-2.594 1.81-4.131 1.81-1.83 0-3.348-.678-4.556-2.032C39.599 21.933 39 20.207 39 18.139c0-2.022.599-3.71 1.798-5.065 1.189-1.363 2.685-2.046 4.487-2.046 1.565 0 2.965.65 4.2 1.948V3.75z"></path>
  <title>Divido</title>
</svg>