<svg xmlns="http://www.w3.org/2000/svg" width="150" height="30" fill="none" viewBox="0 0 150 30" class="PaymentMethodLogo ">
  <path fill="var(--paymentMethodLogoColor, url(#a-payment-method-logo-Eftpos))" d="M50.522 6.153c-3.612 1.638-6.055 4.774-6.055 8.375 0 4.544 4.216 8.228 9.416 8.228 2.386 0 4.064-.548 6.026-1.72.21-.124.443-.217.598-.023.089.11.052.246-.016.369C58.347 25.286 53.987 28 49.093 28 41.863 28 36 22.18 36 15c0-4.1 1.911-7.757 4.897-10.14 2.243-1.79 7.867-2.036 9.625 1.293z"></path>
  <path fill="var(--paymentMethodLogoColor, #E50056)" d="M60.34 11.187c0 4.319-4.154 7.819-9.278 7.819-.746 0-2.765-.102-4.21-.77-.41-.189-.369-.428-.086-.544.657-.27 5.806-1.25 5.806-6.505 0-5.254-5.464-9.096-11.675-6.326A13.098 13.098 0 0149.093 2c6.08 0 11.246 4.114 11.246 9.187z"></path>
  <path fill="var(--paymentMethodLogoColor, #1F0038)" d="M69.66 11.488c-2.821 0-4.332 1.686-4.332 3.867v.062c0 2.194 1.198 3.632 4.207 3.632 2.172 0 3.633-.694 4.256-2.33h-2.096c-.313.533-.9.83-2.022.83-1.536 0-2.298-.557-2.497-1.573h6.716v-.756c0-2.157-1.46-3.73-4.231-3.73l-.001-.002zm-2.46 3.075c.25-1.005 1.074-1.587 2.497-1.587 1.424 0 2.097.508 2.285 1.587H67.2zm15.168-4.785h-1.623c0 .322-.013.843-.075 1.178-.113.595-.263.72-.8.77-.336.025-.71.025-1.073.025h-1.273v-.3c0-1.078.213-1.276 1.161-1.276h.63V8.638h-.842c-2.072 0-2.784.694-2.784 2.74v.373h-1.685v1.61h1.685v5.478h1.823l.012-5.479h3.02v2.232c0 2.417.65 3.248 3.034 3.248h1.36v-1.698h-.862c-1.473 0-1.71-.211-1.71-1.86v-1.92h2.572v-1.61h-2.571V9.777zm8.277 1.735c-1.399 0-2.472.57-3.022 1.55l-.159-1.313h-1.638v9.604h1.885v-3.643c.512.842 1.448 1.313 2.884 1.313 2.022 0 3.695-1.214 3.695-3.657v-.062c0-2.466-1.399-3.792-3.645-3.792zm1.685 3.842c0 1.351-.712 2.095-2.335 2.095-1.535 0-2.322-.756-2.322-2.107v-.05c0-1.4.887-2.23 2.347-2.23 1.536 0 2.31.768 2.31 2.243v.05zm6.99-3.867c-2.558 0-4.294 1.426-4.294 3.806v.074c0 2.318 1.286 3.681 4.256 3.681 2.971 0 4.345-1.425 4.345-3.681v-.074c0-2.405-1.698-3.806-4.308-3.806h.001zm2.347 3.867c0 1.351-.711 2.095-2.347 2.095-1.636 0-2.334-.731-2.334-2.095v-.062c0-1.463.849-2.232 2.36-2.232 1.509 0 2.321.794 2.321 2.232v.062zm6.928-.855c-1.86-.123-2.372-.247-2.372-.768 0-.434.362-.805 1.698-.805 1.173 0 1.897.272 2.06.979h2.047c-.387-1.599-1.66-2.417-4.082-2.417-2.422 0-3.595 1.016-3.595 2.392 0 1.475 1.248 1.946 3.47 2.07 1.848.1 2.422.211 2.422.744s-.449.843-1.797.843c-1.349 0-2.01-.297-2.21-1.054h-2.173c.313 1.71 1.66 2.565 4.307 2.565 2.509 0 3.77-1.016 3.77-2.43 0-1.523-1.074-1.97-3.546-2.119h.001zm4.353-1.454a.836.836 0 01-.565-.194c-.149-.129-.224-.318-.224-.564v-.037a.88.88 0 01.027-.222.715.715 0 01.355-.461.823.823 0 01.399-.096c.073 0 .143.008.209.022s.129.038.19.068a.728.728 0 01.389.685v.04a.902.902 0 01-.026.227.656.656 0 01-.08.185.663.663 0 01-.28.26.88.88 0 01-.394.087zm0-.13a.655.655 0 00.458-.164c.118-.108.179-.266.179-.473v-.025c0-.206-.061-.366-.183-.479a.654.654 0 00-.462-.169.622.622 0 00-.455.175c-.121.117-.181.276-.181.478v.02c0 .204.06.361.181.472a.66.66 0 00.464.164h-.001zm.009-.563h-.169v.298h-.139v-.804h.324c.113 0 .193.021.24.065a.22.22 0 01.072.172.214.214 0 01-.041.136.224.224 0 01-.123.072c.052.011.089.032.111.061.022.03.033.077.033.139v.118c0 .008.001.015.004.022.003.007.005.013.009.018h-.144s-.005-.008-.006-.015c-.002-.007-.002-.015-.002-.026v-.118c0-.052-.009-.088-.028-.109-.019-.02-.066-.03-.14-.03h-.001zm0-.118c.071.002.121-.009.149-.035.029-.026.043-.063.043-.112 0-.041-.015-.072-.045-.091a.253.253 0 00-.14-.031h-.176v.269h.169z"></path>
  <defs>
    <linearGradient id="a-payment-method-logo-Eftpos" x1="48.402" x2="43.46" y1="19.348" y2="-6.258" gradientUnits="userSpaceOnUse">
      <stop stop-color="#E50056"></stop>
      <stop offset=".14" stop-color="#E50056"></stop>
      <stop offset=".75" stop-color="#1F0038"></stop>
      <stop offset="1" stop-color="#1F0038"></stop>
    </linearGradient>
  </defs>
  <title>Eftpos</title>
</svg>