<svg xmlns="http://www.w3.org/2000/svg" width="150" height="30" fill="none" viewBox="0 0 150 30" class="PaymentMethodLogo ">
  <path fill="var(--paymentMethodLogoColor, #149B3D)" d="M27.752 3.307V23.37h4.085v-8.772h8.49v-3.876h-8.49V7.177h8.634v-3.87h-12.72zM52.352 20.49V13.97c0-2.154-1.116-4.884-5.832-4.884a11.826 11.826 0 00-4.369.822v3.557a7.2 7.2 0 013.858-1.116c1.273 0 2.544.438 2.544 1.932v.12a6.889 6.889 0 00-2.243-.372c-3.217 0-5.58 1.686-5.58 4.98 0 3.294 2.652 4.477 4.8 4.477a5.147 5.147 0 003.21-1.026c.029.329.122.649.276.942h4.2c-.505-.409-.864-1.2-.864-2.88m-7.8-1.963c0-1.11.953-1.854 2.31-1.854a3.5 3.5 0 011.685.39v2.4a2.958 2.958 0 01-2.021.756c-1.273-.006-1.975-.726-1.975-1.692zM69.278 9.223a4.968 4.968 0 00-4.002 1.608 4.476 4.476 0 00-3.6-1.608 5.082 5.082 0 00-3.486 1.296V9.36h-3.558V23.4h3.834v-9.468a2.538 2.538 0 012.016-1.056c1.158 0 1.8.792 1.8 2.22V23.4h3.906v-9.57a2.436 2.436 0 011.992-.954c1.248 0 1.8.882 1.8 2.22V23.4h3.906v-9.732c0-2.628-1.68-4.446-4.632-4.446M80.276 9.36h-3.834v14.01h3.834V9.36zM78.356 3a2.49 2.49 0 10-.012 4.981 2.49 2.49 0 00.012-4.98z"></path>
  <path fill="var(--paymentMethodLogoColor, #0F83C7)" d="M107.828 20.49V13.97c0-2.154-1.11-4.884-5.826-4.884a11.887 11.887 0 00-4.386.822v3.557a7.203 7.203 0 013.864-1.116c1.272 0 2.538.438 2.538 1.932v.12a6.868 6.868 0 00-2.244-.372c-3.21 0-5.58 1.686-5.58 4.98 0 3.294 2.658 4.477 4.8 4.477a5.172 5.172 0 003.216-1.026c.039.329.143.647.306.936h4.2c-.504-.409-.87-1.2-.87-2.88m-7.8-1.933c0-1.11.954-1.854 2.316-1.854a3.496 3.496 0 011.68.39v2.4a2.942 2.942 0 01-2.016.756c-1.29-.03-2.004-.75-2.004-1.716l.024.024zM111.278 27h4.308l6.462-17.64h-4.2l-2.664 7.566-2.886-7.566h-4.374l5.274 12.702-1.92 4.938zM89.3 3.307h-6.39V23.4h4.08v-7.902h2.31c3.546 0 7.2-1.416 7.2-6.102s-3.654-6.09-7.2-6.09zm.6 8.316h-2.91V7.2h2.922c1.2 0 2.466.528 2.466 2.226s-1.254 2.196-2.466 2.196H89.9z"></path>
  <title>FamiPay</title>
</svg>