<svg xmlns="http://www.w3.org/2000/svg" width="150" height="30" fill="none" viewBox="0 0 150 30" class="PaymentMethodLogo ">
  <path fill="var(--paymentMethodLogoColor, #00053E)" d="M73 11.446v.875h3.085v1.682h-3.084v8.33h-1.743v-8.33h-1.602V12.32h1.602v-.874c0-2.51 1.332-3.983 3.907-3.983h.92v1.681h-.929c-1.41 0-2.156.73-2.156 2.3M76.671 17.326a5.277 5.277 0 115.267 5.267 5.223 5.223 0 01-5.267-5.267zm8.811 0a3.534 3.534 0 10-3.544 3.564 3.49 3.49 0 003.544-3.564M97.788 16.184v6.149h-1.74v-6.048c0-1.642-.942-2.563-2.484-2.563-1.602 0-2.903.941-2.903 3.304v5.307h-1.743V12.32h1.742v1.442c.74-1.182 1.842-1.702 3.244-1.702 2.342 0 3.884 1.562 3.884 4.125M99.512 9.336a1.172 1.172 0 112.344-.037 1.172 1.172 0 01-2.344.037zm.3 2.984h1.742v10.012h-1.742V12.32zM110.459 22.332l-2.803-3.785-2.824 3.784h-2.043l3.845-5.146-3.624-4.865h2.062l2.584 3.484 2.583-3.484h2.043l-3.605 4.846 3.826 5.166h-2.044z"></path>
  <path fill="var(--paymentMethodLogoColor, #3A3DD5)" d="M41.344 24.655A13.126 13.126 0 1043.49 4.356 3.822 3.822 0 0147.16 9.04a7.218 7.218 0 11-1.64 1.23 2.953 2.953 0 00-4.177-4.177 13.125 13.125 0 000 18.562zm.62-15.004a2.078 2.078 0 112.938-2.94 2.078 2.078 0 01-2.938 2.94z"></path>
  <title>Fonix</title>
</svg>