<svg xmlns="http://www.w3.org/2000/svg" width="150" height="30" fill="none" viewBox="0 0 150 30" class="PaymentMethodLogo ">
  <path fill="var(--paymentMethodLogoColor, #017DFF)" d="M36.86 15.816c.095.711.296 1.369.58 2a6.828 6.828 0 001.17 1.785 7.002 7.002 0 001.979 1.57 7.14 7.14 0 002.275.778c.27.04.538.054.821.08.148.014.296.027.444.027a7.522 7.522 0 002.854-.617 8.068 8.068 0 001.508-.886c.525-.389 1.184-.308 1.575.215a1.08 1.08 0 01-.189 1.49 9.183 9.183 0 01-3.338 1.664 7.651 7.651 0 01-1.642.282c-.431.026-.875.053-1.306.026a9.57 9.57 0 01-2.598-.496 9.673 9.673 0 01-3.123-1.798 9.039 9.039 0 01-1.642-1.866 9.512 9.512 0 01-1.346-3.073c-.122-.523-.216-1.047-.23-1.584-.013-.349-.04-.697-.013-1.046.067-1.249.35-2.43.889-3.57a9.512 9.512 0 011.534-2.295 9.321 9.321 0 013.083-2.268 9.127 9.127 0 012.719-.765c.27-.027.538-.054.794-.067.202-.014.417-.027.62-.027 1.305.04 2.57.309 3.755.872.66.309 1.279.685 1.844 1.128.337.255.485.71.35 1.154-.134.43-.43.684-.875.765a1.077 1.077 0 01-.848-.215 7.652 7.652 0 00-2.086-1.127 7.38 7.38 0 00-1.616-.35c-.43-.04-.848-.04-1.279-.013a6.316 6.316 0 00-1.319.228 7.25 7.25 0 00-2.907 1.544 7.21 7.21 0 00-2.073 3.006c-.202.55-.337 1.1-.39 1.69-.028.296-.055.591-.055.887 0 .268.054.563.081.872z"></path>
  <path fill="var(--paymentMethodLogoColor, #012DB8)" d="M46.094 11.629a3.797 3.797 0 00-2.423-.577 3.773 3.773 0 00-2.248 1.046 3.828 3.828 0 00-1.036 1.772 3.493 3.493 0 00-.108.738 3.632 3.632 0 00.242 1.517c.175.456.431.858.754 1.22.418.457.93.793 1.508 1.007.31.108.62.175.942.202 1.212.094 2.235-.309 3.083-1.168.39-.402.66-.872.848-1.409.013-.014 0-.04.013-.08h-.175c-.767 0-1.534-.014-2.301 0a1.09 1.09 0 01-1.131-1.047 1.072 1.072 0 01.902-1.128c.12-.027.255-.027.377-.027h3.58c.539 0 .983.336 1.09.86.04.214.027.442.014.67a5.846 5.846 0 01-1.373 3.396c-.808.953-1.817 1.61-3.029 1.932a6.869 6.869 0 01-1.279.202 5.861 5.861 0 01-2.988-.631 5.886 5.886 0 01-2.625-2.617 5.77 5.77 0 01-.619-2.053c-.162-1.665.256-3.168 1.32-4.47.914-1.113 2.086-1.784 3.512-2.04a6.284 6.284 0 011.589-.08 5.96 5.96 0 012.76.913c.444.282.605.886.376 1.355a1.087 1.087 0 01-1.278.604c-.095-.027-.189-.067-.297-.107zm17.742 7.65a6.15 6.15 0 01-.808-.873 5.41 5.41 0 01-1.063-2.389 6.98 6.98 0 01-.094-1.758c.107-1.302.592-2.442 1.467-3.409.875-.98 1.952-1.61 3.244-1.865a6.651 6.651 0 011.858-.094c1.319.12 2.477.604 3.46 1.49.255.241.484.496.7.778a.603.603 0 01-.19.9c-.282.147-.551.321-.82.469a.576.576 0 01-.754-.161c-.62-.792-1.44-1.235-2.437-1.356-.82-.093-1.615-.013-2.342.376-.942.483-1.575 1.248-1.884 2.268a4.092 4.092 0 00-.162 1.396c.04.859.31 1.65.889 2.308a3.908 3.908 0 002.49 1.329c1.225.148 2.275-.242 3.204-1.02.538-.456.861-1.047 1.01-1.731v-.094h-3.057c-.08 0-.175-.014-.255-.027-.256-.054-.445-.255-.445-.524v-.885c0-.282.23-.51.499-.537h4.617c.323 0 .552.148.7.43.04.08.067.16.067.254 0 .819-.027 1.638-.323 2.416-.229.63-.525 1.221-.956 1.731-.417.497-.942.9-1.507 1.221-.674.376-1.374.645-2.14.765-.418.068-.835.094-1.253.068a8.882 8.882 0 01-1.198-.162 5.513 5.513 0 01-2.463-1.248.237.237 0 00-.054-.067zm30.341-6.348c0-.35.014-.685 0-1.007-.013-.282.202-.51.512-.51.39.014.78 0 1.17 0 .31 0 .512.228.512.497v8.24c0 .308-.175.483-.484.483h-1.212c-.296 0-.47-.175-.484-.47v-.711c-.081 0-.108.067-.148.107a4.224 4.224 0 01-1.387.94c-.336.147-.7.228-1.063.255a3.977 3.977 0 01-2.221-.416c-.714-.35-1.28-.886-1.71-1.57a5.04 5.04 0 01-.74-2.188c-.094-.966 0-1.906.404-2.805.619-1.355 1.669-2.2 3.15-2.47.686-.12 1.372-.093 2.032.135.565.201 1.037.51 1.386.993.095.12.149.268.23.403 0 .067.026.08.053.094zm-5.088 2.75a3.43 3.43 0 00.054.98c.12.55.35 1.06.74 1.477.485.51 1.077.751 1.777.738.74-.014 1.346-.309 1.83-.846.458-.51.647-1.127.674-1.798a3.385 3.385 0 00-.148-1.221c-.256-.779-.754-1.329-1.521-1.638a2.295 2.295 0 00-1.239-.134c-.27.04-.538.108-.78.242-.862.456-1.266 1.221-1.387 2.2zm-11.146-3.327a3.84 3.84 0 00-.794 2.12c-.04.55.013 1.073.175 1.597.162.563.471 1.06.875 1.476.633.658 1.427.98 2.329 1.074.619.067 1.238 0 1.817-.228.646-.242 1.171-.631 1.561-1.208.175-.242.39-.309.647-.175.35.188.713.39 1.05.604.255.148.31.43.134.685a5.105 5.105 0 01-1.615 1.556 5.652 5.652 0 01-2.194.819 5.532 5.532 0 01-1.158.067c-.808-.04-1.588-.174-2.342-.51a5.765 5.765 0 01-1.589-1.06 5.943 5.943 0 01-1.225-1.61 5.57 5.57 0 01-.525-1.53 6.408 6.408 0 01-.094-1.758c.108-1.342.58-2.51 1.494-3.516.943-1.034 2.1-1.638 3.473-1.84a6.737 6.737 0 011.562-.053c1.279.108 2.41.59 3.379 1.45.31.281.578.59.82.926.216.295.095.604-.174.751-.323.175-.633.363-.956.55-.189.108-.377.135-.552 0a.318.318 0 01-.108-.12c-.538-.806-1.305-1.275-2.248-1.423-1.117-.188-2.153 0-3.082.684a5.16 5.16 0 00-.66.671zm29.857 8.28c-.175 0-.337-.014-.498 0-.216.013-.458-.215-.431-.443v-.094V8.891v-.094c0-.241.188-.43.431-.43h1.305c.229 0 .431.202.431.47-.013 1.1 0 2.215 0 3.315v.202c.027-.014.054-.014.067-.027.485-.416 1.05-.671 1.683-.806a4.47 4.47 0 01.727-.08 3.955 3.955 0 011.804.322 3.186 3.186 0 011.548 1.45c.323.603.484 1.248.484 1.932.014 1.65.014 3.315.027 4.965 0 .067-.013.148-.027.215a.42.42 0 01-.417.309h-1.265c-.243 0-.418-.175-.444-.416v-.134-4.496c0-.537-.108-1.047-.391-1.503-.323-.524-.794-.806-1.4-.886-.417-.054-.821 0-1.198.174-.431.202-.727.55-.929.98a2.465 2.465 0 00-.228 1.034c-.014 1.583-.014 3.167-.027 4.75 0 .08 0 .161-.027.228-.081.161-.202.269-.404.255-.283.014-.539.014-.821.014zm-5.25-7.18c-.377-.282-.808-.336-1.238-.309a1.777 1.777 0 00-.7.161c-.297.135-.485.363-.472.698 0 .202.095.35.243.483.188.175.417.282.659.363.445.147.902.268 1.346.402.512.148 1.01.309 1.481.564.498.268.916.604 1.158 1.114.431.886.296 2.013-.417 2.764-.485.51-1.091.806-1.777.967a4.818 4.818 0 01-1.387.12c-.956-.053-1.844-.322-2.584-.939-.539-.456-.902-1.02-1.023-1.731a.448.448 0 01.336-.51 1.19 1.19 0 01.229-.027h1.104c.067 0 .134.013.215.027a.428.428 0 01.337.282c.188.59.632.872 1.198.993.444.094.888.053 1.319-.121a.913.913 0 00.484-.416.666.666 0 00-.161-.819 2.272 2.272 0 00-.74-.375c-.498-.148-.997-.282-1.495-.43-.498-.148-.982-.309-1.426-.564-.35-.2-.647-.442-.875-.778-.27-.39-.39-.832-.39-1.288-.014-.913.39-1.597 1.117-2.12.498-.35 1.049-.537 1.642-.631.404-.068.821-.081 1.225-.054.727.054 1.413.228 2.019.658.633.456.996 1.086 1.157 1.838.014.054.027.12.027.175a.47.47 0 01-.457.496h-1.252a.45.45 0 01-.458-.335 1.549 1.549 0 00-.444-.658z"></path>
  <path fill="var(--paymentMethodLogoColor, #70BAF7)" d="M54.844 14.917c0-1.248-.188-2.443-.592-3.61a10.2 10.2 0 00-.525-1.248 1.345 1.345 0 01-.162-.644c.014-.497.418-.953.916-1.034A1.11 1.11 0 0155.65 9a13.54 13.54 0 011.145 3.355 9.25 9.25 0 01.202 1.597c.013.523.04 1.033.013 1.556-.04.752-.148 1.503-.323 2.242a13.147 13.147 0 01-1.063 2.898c-.31.604-1.171.846-1.75.296-.337-.323-.43-.806-.202-1.262.283-.564.525-1.14.7-1.745.148-.496.27-.993.337-1.503.04-.349.067-.697.107-1.06.014-.134.014-.282.027-.456zm-4.28-3.664c.013-.053.013-.094.026-.148.081-.442.498-.805.916-.858.619-.067 1.01.308 1.184.684.283.658.512 1.329.647 2.04.053.295.094.59.12.886.028.335.054.67.054 1.006 0 .671-.08 1.342-.228 1.986a9.356 9.356 0 01-.633 1.88c-.175.388-.485.603-.902.643-.444.04-.794-.134-1.023-.51-.215-.335-.215-.697-.04-1.06a7.044 7.044 0 00.565-1.879 7.129 7.129 0 00.067-1.69 6.978 6.978 0 00-.632-2.43 1.224 1.224 0 01-.122-.55z"></path>
  <path fill="var(--paymentMethodLogoColor, #017DFF)" d="M36.86 15.816c.095.711.296 1.369.58 2a6.828 6.828 0 001.17 1.785 7.002 7.002 0 001.979 1.57 7.14 7.14 0 002.275.778c.27.04.538.054.821.08.148.014.296.027.444.027a7.522 7.522 0 002.854-.617 8.068 8.068 0 001.508-.886c.525-.389 1.184-.308 1.575.215a1.08 1.08 0 01-.189 1.49 9.183 9.183 0 01-3.338 1.664 7.651 7.651 0 01-1.642.282c-.431.026-.875.053-1.306.026a9.57 9.57 0 01-2.598-.496 9.673 9.673 0 01-3.123-1.798 9.039 9.039 0 01-1.642-1.866 9.512 9.512 0 01-1.346-3.073c-.122-.523-.216-1.047-.23-1.584-.013-.349-.04-.697-.013-1.046.067-1.249.35-2.43.889-3.57a9.512 9.512 0 011.534-2.295 9.321 9.321 0 013.083-2.268 9.127 9.127 0 012.719-.765c.27-.027.538-.054.794-.067.202-.014.417-.027.62-.027 1.305.04 2.57.309 3.755.872.66.309 1.279.685 1.844 1.128.337.255.485.71.35 1.154-.134.43-.43.684-.875.765a1.077 1.077 0 01-.848-.215 7.652 7.652 0 00-2.086-1.127 7.38 7.38 0 00-1.616-.35c-.43-.04-.848-.04-1.279-.013a6.316 6.316 0 00-1.319.228 7.25 7.25 0 00-2.907 1.544 7.21 7.21 0 00-2.073 3.006c-.202.55-.337 1.1-.39 1.69-.028.296-.055.591-.055.887 0 .268.054.563.081.872z"></path>
  <path fill="var(--paymentMethodLogoColor, #012DB8)" d="M46.094 11.629a3.797 3.797 0 00-2.423-.577 3.773 3.773 0 00-2.248 1.046 3.828 3.828 0 00-1.036 1.772 3.493 3.493 0 00-.108.738 3.632 3.632 0 00.242 1.517c.175.456.431.858.754 1.22.418.457.93.793 1.508 1.007.31.108.62.175.942.202 1.212.094 2.235-.309 3.083-1.168.39-.402.66-.872.848-1.409.013-.014 0-.04.013-.08h-.175c-.767 0-1.534-.014-2.301 0a1.09 1.09 0 01-1.131-1.047 1.072 1.072 0 01.902-1.128c.12-.027.255-.027.377-.027h3.58c.539 0 .983.336 1.09.86.04.214.027.442.014.67a5.846 5.846 0 01-1.373 3.396c-.808.953-1.817 1.61-3.029 1.932a6.869 6.869 0 01-1.279.202 5.861 5.861 0 01-2.988-.631 5.886 5.886 0 01-2.625-2.617 5.77 5.77 0 01-.619-2.053c-.162-1.665.256-3.168 1.32-4.47.914-1.113 2.086-1.784 3.512-2.04a6.284 6.284 0 011.589-.08 5.96 5.96 0 012.76.913c.444.282.605.886.376 1.355a1.087 1.087 0 01-1.278.604c-.095-.027-.189-.067-.297-.107zm17.742 7.65a6.15 6.15 0 01-.808-.873 5.41 5.41 0 01-1.063-2.389 6.98 6.98 0 01-.094-1.758c.107-1.302.592-2.442 1.467-3.409.875-.98 1.952-1.61 3.244-1.865a6.651 6.651 0 011.858-.094c1.319.12 2.477.604 3.46 1.49.255.241.484.496.7.778a.603.603 0 01-.19.9c-.282.147-.551.321-.82.469a.576.576 0 01-.754-.161c-.62-.792-1.44-1.235-2.437-1.356-.82-.093-1.615-.013-2.342.376-.942.483-1.575 1.248-1.884 2.268a4.092 4.092 0 00-.162 1.396c.04.859.31 1.65.889 2.308a3.908 3.908 0 002.49 1.329c1.225.148 2.275-.242 3.204-1.02.538-.456.861-1.047 1.01-1.731v-.094h-3.057c-.08 0-.175-.014-.255-.027-.256-.054-.445-.255-.445-.524v-.885c0-.282.23-.51.499-.537h4.617c.323 0 .552.148.7.43.04.08.067.16.067.254 0 .819-.027 1.638-.323 2.416-.229.63-.525 1.221-.956 1.731-.417.497-.942.9-1.507 1.221-.674.376-1.374.645-2.14.765-.418.068-.835.094-1.253.068a8.882 8.882 0 01-1.198-.162 5.513 5.513 0 01-2.463-1.248.237.237 0 00-.054-.067zm30.341-6.348c0-.35.014-.685 0-1.007-.013-.282.202-.51.512-.51.39.014.78 0 1.17 0 .31 0 .512.228.512.497v8.24c0 .308-.175.483-.484.483h-1.212c-.296 0-.47-.175-.484-.47v-.711c-.081 0-.108.067-.148.107a4.224 4.224 0 01-1.387.94c-.336.147-.7.228-1.063.255a3.977 3.977 0 01-2.221-.416c-.714-.35-1.28-.886-1.71-1.57a5.04 5.04 0 01-.74-2.188c-.094-.966 0-1.906.404-2.805.619-1.355 1.669-2.2 3.15-2.47.686-.12 1.373-.093 2.032.135.565.201 1.037.51 1.386.993.095.12.149.268.23.403 0 .067.026.08.053.094zm-5.088 2.75a3.43 3.43 0 00.054.98c.12.55.35 1.06.74 1.477.485.51 1.077.751 1.777.738.74-.014 1.346-.309 1.83-.846.458-.51.647-1.127.674-1.798a3.385 3.385 0 00-.148-1.221c-.256-.779-.754-1.329-1.521-1.638a2.295 2.295 0 00-1.239-.134c-.27.04-.538.108-.78.242-.862.456-1.266 1.221-1.387 2.2zm-11.146-3.327a3.84 3.84 0 00-.794 2.12c-.04.55.013 1.073.175 1.597.162.563.471 1.06.875 1.476.633.658 1.427.98 2.329 1.074.619.067 1.238 0 1.817-.228.646-.242 1.171-.631 1.561-1.208.175-.242.39-.309.647-.175.35.188.713.39 1.05.604.255.148.31.43.134.685a5.105 5.105 0 01-1.615 1.556 5.652 5.652 0 01-2.194.819 5.532 5.532 0 01-1.158.067c-.808-.04-1.588-.174-2.342-.51a5.765 5.765 0 01-1.589-1.06 5.943 5.943 0 01-1.225-1.61 5.57 5.57 0 01-.525-1.53 6.408 6.408 0 01-.094-1.758c.108-1.342.58-2.51 1.494-3.516.943-1.034 2.1-1.638 3.473-1.84a6.737 6.737 0 011.562-.053c1.279.108 2.41.59 3.379 1.45.31.281.578.59.82.926.216.295.095.604-.174.751-.323.175-.633.363-.956.55-.189.108-.377.135-.552 0a.317.317 0 01-.108-.12c-.538-.806-1.305-1.275-2.248-1.423-1.117-.188-2.153 0-3.082.684a5.16 5.16 0 00-.66.671zm29.857 8.28c-.175 0-.337-.014-.498 0-.216.013-.458-.215-.431-.443v-.094V8.891v-.094c0-.241.188-.43.431-.43h1.305c.229 0 .431.202.431.47-.013 1.1 0 2.215 0 3.315v.202c.027-.014.054-.014.068-.027.484-.416 1.049-.671 1.682-.806a4.47 4.47 0 01.727-.08 3.955 3.955 0 011.804.322 3.186 3.186 0 011.548 1.45c.323.603.484 1.248.484 1.932.014 1.65.014 3.315.027 4.965 0 .067-.013.148-.027.215a.42.42 0 01-.417.309h-1.265c-.243 0-.418-.175-.444-.416v-.134-4.496c0-.537-.108-1.047-.391-1.503-.323-.524-.794-.806-1.4-.886-.417-.054-.821 0-1.198.174-.431.202-.727.55-.929.98a2.465 2.465 0 00-.228 1.034c-.014 1.583-.014 3.167-.027 4.75 0 .08 0 .161-.027.228-.081.161-.202.269-.404.255-.283.014-.539.014-.821.014zm-5.25-7.18c-.377-.282-.808-.336-1.238-.309a1.777 1.777 0 00-.7.161c-.297.135-.485.363-.472.698 0 .202.095.35.243.483.188.175.417.282.659.363.445.147.902.268 1.346.402.512.148 1.01.309 1.481.564.498.268.916.604 1.158 1.114.431.886.296 2.013-.417 2.764-.485.51-1.091.806-1.777.967a4.818 4.818 0 01-1.387.12c-.956-.053-1.844-.322-2.584-.939-.539-.456-.902-1.02-1.023-1.731a.448.448 0 01.336-.51 1.19 1.19 0 01.229-.027h1.104c.067 0 .134.013.215.027a.428.428 0 01.337.282c.188.59.632.872 1.198.993.444.094.888.053 1.319-.121a.919.919 0 00.485-.416.667.667 0 00-.162-.819 2.272 2.272 0 00-.74-.375c-.498-.148-.997-.282-1.495-.43-.498-.148-.982-.309-1.426-.564-.35-.2-.647-.442-.875-.778-.27-.39-.39-.832-.39-1.288-.014-.913.39-1.597 1.117-2.12.498-.35 1.049-.537 1.642-.631.404-.068.821-.081 1.225-.054.727.054 1.413.228 2.019.658.633.456.996 1.086 1.157 1.838.014.054.027.12.027.175a.47.47 0 01-.457.496h-1.252a.45.45 0 01-.458-.335 1.549 1.549 0 00-.444-.658z"></path>
  <path fill="var(--paymentMethodLogoColor, #70BAF7)" d="M54.844 14.917c0-1.248-.188-2.443-.592-3.61a10.2 10.2 0 00-.525-1.248 1.345 1.345 0 01-.162-.644c.014-.497.418-.953.916-1.034A1.11 1.11 0 0155.65 9a13.54 13.54 0 011.145 3.355 9.25 9.25 0 01.202 1.597c.013.523.04 1.033.013 1.556-.04.752-.148 1.503-.323 2.242a13.147 13.147 0 01-1.063 2.898c-.31.604-1.171.846-1.75.296-.337-.323-.43-.806-.202-1.262.283-.564.525-1.14.7-1.745.148-.496.27-.993.337-1.503.04-.349.067-.697.107-1.06.014-.134.014-.282.027-.456zm-4.28-3.664c.013-.053.013-.094.026-.148.081-.442.498-.805.916-.858.619-.067 1.01.308 1.184.684.283.658.512 1.329.647 2.04.053.295.094.59.12.886.028.335.054.67.054 1.006 0 .671-.08 1.342-.228 1.986a9.356 9.356 0 01-.633 1.88c-.175.388-.485.603-.902.643-.444.04-.794-.134-1.023-.51-.215-.335-.215-.697-.04-1.06a7.044 7.044 0 00.565-1.879 7.129 7.129 0 00.067-1.69 6.978 6.978 0 00-.632-2.43 1.224 1.224 0 01-.122-.55z"></path>
  <title>GCash</title>
</svg>