<svg xmlns="http://www.w3.org/2000/svg" width="150" height="30" fill="none" viewBox="0 0 150 30" class="PaymentMethodLogo ">
  <path fill="var(--paymentMethodLogoColor, #fff)" d="M48.77 7.137v15.725a2.373 2.373 0 002.373 2.369h24.665V4.768H51.143a2.374 2.374 0 00-2.373 2.369z"></path>
  <path fill="var(--paymentMethodLogoColor, #000166)" d="M98.35 3H51.143A4.143 4.143 0 0047 7.137v15.725A4.143 4.143 0 0051.143 27h47.209a4.143 4.143 0 004.143-4.138V7.137A4.146 4.146 0 0098.35 3zM75.808 25.231H51.143a2.373 2.373 0 01-2.37-2.369V7.137a2.374 2.374 0 012.37-2.369h24.665v20.463z"></path>
  <path fill="var(--paymentMethodLogoColor, #fff)" d="M82.365 14.818c0 .954-.472 1.61-1.254 1.61-.69 0-1.267-.656-1.267-1.53 0-.896.507-1.563 1.267-1.563.805 0 1.254.688 1.254 1.483zm-4.591 5.473h2.071v-3.254h.023c.392.713 1.175.977 1.9.977 1.783 0 2.738-1.472 2.738-3.243 0-1.45-.908-3.023-2.565-3.023-.944 0-1.82.379-2.233 1.219h-.023v-1.081h-1.911v8.405zM87.333 15.979c0-.575.553-.794 1.254-.794.31 0 .61.023.875.035 0 .7-.494 1.414-1.278 1.414-.483 0-.851-.242-.851-.655zm4.177 1.896a7.403 7.403 0 01-.115-1.41V14.23c0-1.828-1.323-2.485-2.854-2.485a6.173 6.173 0 00-2.39.429l.034 1.402a3.899 3.899 0 011.91-.449c.749 0 1.359.219 1.37 1.036a6.004 6.004 0 00-.966-.08c-1.105 0-3.096.218-3.096 2.046-.003 1.299 1.059 1.89 2.241 1.89.852 0 1.427-.334 1.899-1.082h.026c0 .31.035.621.046.942l1.895-.004zM92.44 20.29c.424.092.856.139 1.289.138 1.9 0 2.348-1.46 2.934-2.965l2.198-5.578H96.79l-1.23 3.91h-.025l-1.288-3.91h-2.232l2.427 6.133c-.148.528-.54.829-1.045.829a2.463 2.463 0 01-.818-.127l-.138 1.57z"></path>
  <path fill="var(--paymentMethodLogoColor, #FF000B)" d="M53.845 14.83c0-.817.403-1.495 1.174-1.495.932 0 1.323.746 1.323 1.413 0 .92-.587 1.542-1.323 1.542-.622 0-1.174-.53-1.174-1.46zm4.5-2.944h-1.876v1.08h-.023c-.435-.736-1.15-1.218-2.037-1.218-1.865 0-2.704 1.333-2.704 3.115 0 1.783 1.024 3.012 2.67 3.012.828 0 1.519-.32 2.013-1.023h.023v.323c0 1.172-.644 1.736-1.84 1.736-.864 0-1.393-.184-2.026-.494l-.103 1.632c.736.253 1.51.381 2.289.38 2.416 0 3.613-.794 3.613-3.254v-5.29zM61.844 9.39h-2.072v1.518h2.072V9.39zm-2.072 8.485h2.072v-5.99h-2.072v5.99zM67.611 11.816a4.435 4.435 0 00-.7-.068c-.899 0-1.417.482-1.773 1.243h-.023v-1.105h-1.887v5.99h2.071v-2.529c0-1.173.542-1.875 1.508-1.875.236-.011.473.012.702.069l.102-1.725zM71.178 16.568c-.956 0-1.346-.793-1.346-1.678 0-.884.39-1.69 1.346-1.69.956 0 1.347.792 1.347 1.69 0 .898-.39 1.678-1.347 1.678zm0 1.45c1.978 0 3.487-1.15 3.487-3.127 0-1.977-1.509-3.139-3.487-3.139-1.978 0-3.487 1.15-3.487 3.14 0 1.989 1.508 3.126 3.487 3.126z"></path>
  <title>giropay</title>
</svg>