<svg xmlns="http://www.w3.org/2000/svg" width="150" height="30" fill="none" viewBox="0 0 150 30" class="PaymentMethodLogo ">
  <path fill="var(--paymentMethodLogoColor, #FDB913)" d="M62.5 0h25A2.5 2.5 0 0190 2.5v25a2.5 2.5 0 01-2.5 2.5h-25a2.5 2.5 0 01-2.5-2.5v-25A2.5 2.5 0 0162.5 0z"></path>
  <path fill="var(--paymentMethodLogoColor, #231F20)" d="M76.75 15.324l-.002-5.372 1.402-.332v.704s.363-.926 1.206-1.141c.126-.04.26-.05.39-.026v1.37a1.964 1.964 0 00-.735.153c-.518.205-.778.651-.778 1.333v2.966l-1.483.345zM69.36 17.07s-.228-.341-.228-1.55v-2.674l-.722.171v-1.101l.723-.171v-1.201l1.491-.352v1.2l1.054-.25v1.1l-1.054.25v2.724c0 1.239.329 1.476.329 1.476l-1.593.378zM71.834 13.875c0-.955.135-1.652.427-2.186.348-.635.917-1.048 1.747-1.237 1.636-.372 2.226.596 2.203 1.894-.009.464-.007.69-.007.69l-2.881.678v.046c0 .907.19 1.338.765 1.216.496-.105.635-.416.674-.8.006-.063.01-.22.01-.22l1.349-.324s.003.11.001.235c-.011.515-.161 1.794-2.037 2.237-1.778.422-2.251-.663-2.251-2.23zm2.234-2.423c-.477.109-.728.577-.739 1.353l1.45-.345c.002-.035.002-.113.002-.234-.002-.586-.183-.895-.713-.774zM84.792 10.734c-.056-1.636.368-2.934 2.193-3.347 1.163-.265 1.605.038 1.829.33.215.28.298.656.298 1.183l.001.097-1.428.34v-.2c0-.625-.173-.863-.627-.749-.54.136-.759.648-.759 1.667 0 .362.002.427.002.476 0 1.035.141 1.51.764 1.38.54-.112.614-.586.622-1.002l.004-.274 1.426-.337.001.223c-.003 1.357-.719 2.213-2.06 2.525-1.847.433-2.21-.634-2.266-2.312zM79.856 13.024c0-1.244.729-1.637 1.826-2.091.986-.409 1.008-.611 1.012-.966.005-.298-.133-.554-.624-.428a.742.742 0 00-.595.702 2.536 2.536 0 00-.01.276l-1.382.327c-.01-.276.023-.552.095-.818.221-.744.877-1.244 2.01-1.506 1.472-.34 1.962.306 1.964 1.31v2.38c0 1.15.214 1.319.214 1.319l-1.358.321a2.952 2.952 0 01-.182-.487s-.298.749-1.323.99c-1.077.254-1.647-.414-1.647-1.329zm2.828-1.699c-.228.16-.47.302-.722.423-.453.221-.657.494-.657.915 0 .363.225.602.635.501.44-.11.744-.52.744-1.09v-.749zM61.565 20.836a.863.863 0 01-.722-1.331l.01-.013.015-.004 2.028-.479v1.54l-.032.008c-.46.11-1.01.236-1.122.26a.847.847 0 01-.177.019zM61.565 22.806a.86.86 0 01-.722-1.329l.01-.014.015-.004 2.028-.479v1.54l-.032.009c-.46.11-1.01.237-1.122.26a.912.912 0 01-.177.017zM61.565 24.78a.861.861 0 01-.722-1.33l.01-.015 2.043-.481v1.54l-.032.008c-.485.117-1.025.239-1.122.26a.897.897 0 01-.177.018zM61.325 18.949v-8.617l1.57-.371v8.616l-1.57.372zM65.239 18.216a.97.97 0 10-1.939 0l.002 8.053a2.627 2.627 0 002.622 2.624l2.744-.003v-3.36l.002-3.747a1.27 1.27 0 00-.564-1.056l-2.445-1.66v3.77a.209.209 0 11-.418 0l-.004-4.621z"></path>
  <path fill="var(--paymentMethodLogoColor, #231F20)" d="M66.547 12.207a2.12 2.12 0 00-1.398 1.081v-.605l-1.414.334.001 3.868a1.447 1.447 0 011.49.26v-2.497c0-.598.297-1.076.722-1.17.32-.07.587.045.587.614l.002 3.643 1.49-.349v-3.854c0-.934-.36-1.587-1.48-1.325zM88.194 6.692a.921.921 0 11-.001-1.842.921.921 0 01.001 1.842zm0-1.726a.805.805 0 100 1.61.805.805 0 000-1.61z"></path>
  <path fill="var(--paymentMethodLogoColor, #231F20)" d="M87.86 5.223h.396a.26.26 0 01.286.289c0 .146-.065.258-.188.277v.002c.112.011.17.073.176.23.002.072.003.16.007.23a.115.115 0 00.053.096h-.203a.186.186 0 01-.03-.1c-.006-.067-.005-.13-.008-.212-.003-.122-.04-.176-.163-.176h-.147v.488h-.18V5.223zm.322.5a.165.165 0 00.18-.182c0-.12-.052-.183-.17-.183h-.153v.366h.143z"></path>
  <title>Interac</title>
</svg>