<svg xmlns="http://www.w3.org/2000/svg" width="150" height="30" fill="none" viewBox="0 0 150 30" class="PaymentMethodLogo ">
  <path fill="var(--paymentMethodLogoColor, #FB5950)" fill-rule="evenodd" d="M94.873 27H73.559a1.347 1.347 0 01-1.348-1.348V4.348c0-.745.602-1.348 1.348-1.348h21.303c.746 0 1.348.603 1.348 1.348v21.304A1.332 1.332 0 0194.873 27zm-19.956-2.706h18.608V5.686H74.916l.001 18.608zm14.266-9.712v-3.85a.275.275 0 00-.378-.256l-2.155.899a.271.271 0 00-.163.255v6.74a.28.28 0 00.163.256l2.155.899a.27.27 0 00.378-.256v-4.687zm-7.237 3.788v-6.74a.286.286 0 00-.163-.256l-2.155-.899a.276.276 0 00-.378.256v8.537c0 .205.194.327.378.256l2.155-.899a.28.28 0 00.163-.255zm20.846 1.715h-1.148c-.296 0-.463-.166-.463-.462V7.445c0-.297.167-.463.463-.463h3.96c2.814 0 4.757 1.758 4.757 4.257 0 2.498-1.943 4.275-4.756 4.275h-2.35v4.109c0 .296-.167.462-.463.462zm2.813-6.496c1.665 0 2.702-.907 2.702-2.35 0-1.425-1.037-2.332-2.702-2.332h-2.35v4.682h2.35zm14.494-2.184v6.145c0 .407.148.851.555.851h.037c.296 0 .444.148.444.426v.574c0 .555-.444.758-.981.758-.888 0-1.444-.37-1.703-1.24-.666.722-1.72 1.351-3.016 1.351-2.462 0-4.313-1.98-4.313-4.756 0-2.776 1.851-4.757 4.313-4.757 1.147 0 2.091.5 2.665 1.13h.037v-.482c0-.296.166-.462.462-.462h1.037c.296 0 .463.166.463.462zm-1.962 5.978v-3.738c-.5-.63-1.425-1.074-2.35-1.074-1.574 0-2.666 1.203-2.666 2.943s1.092 2.943 2.665 2.943c.926 0 1.852-.445 2.351-1.074zm8.315 4.331l3.979-10.253c.111-.26-.055-.518-.389-.518h-1.036c-.278 0-.426.13-.518.388l-2.388 6.533h-.037l-2.35-6.533c-.093-.277-.222-.388-.518-.388h-1.055c-.352 0-.5.222-.389.518l3.35 8.624-.333.944c-.296.796-.778 1.166-1.444 1.166-.426 0-.759-.11-.981-.203-.296-.13-.462-.056-.611.259l-.314.647c-.167.334-.093.537.203.667.667.314 1.24.407 1.703.407 1.518 0 2.536-.74 3.128-2.258zM19 7.47c0 .684.555 1.24 1.222 1.24.703 0 1.258-.556 1.258-1.24 0-.685-.555-1.222-1.258-1.222A1.22 1.22 0 0019 7.47zm.24 9.698c0 1.48.815 2.35 2.203 2.35.537 0 .833-.204.833-.555v-.833c0-.278-.148-.426-.444-.426h-.037c-.408 0-.556-.444-.556-.851v-6.145c0-.296-.166-.462-.462-.462h-1.074c-.296 0-.462.166-.462.462v6.46h-.001zm15.522-6.534l-1.776 6.348h-.037l-1.889-6.347a.524.524 0 00-.537-.388H29.34c-.278 0-.463.13-.537.37l-1.962 6.367h-.037l-1.703-6.351c-.074-.277-.222-.388-.518-.388h-1.129c-.296 0-.48.24-.388.518L25.638 19a.5.5 0 00.518.389h1.185c.259 0 .444-.13.518-.37l1.98-6.182h.037l1.98 6.181c.075.24.26.37.519.37h1.184c.26 0 .445-.13.519-.388l2.572-8.236c.093-.278-.092-.518-.388-.518h-.981c-.278 0-.445.13-.519.388zm7.368 8.94c-2.683 0-4.7-2.036-4.7-4.757 0-2.72 2.017-4.756 4.7-4.756 2.684 0 4.701 2.017 4.701 4.756 0 2.72-2.017 4.757-4.7 4.757h-.001zm0-1.814c1.536 0 2.702-1.259 2.702-2.943 0-1.684-1.166-2.943-2.702-2.943s-2.702 1.259-2.702 2.943c0 1.684 1.166 2.943 2.702 2.943zm14.711-5.497c-.777-1.37-2.258-2.202-3.96-2.202-2.592 0-4.535 2.035-4.535 4.756 0 2.72 1.943 4.757 4.534 4.757 1.74 0 2.999-.667 3.905-2.11.167-.278.075-.5-.203-.63l-.925-.407c-.26-.11-.463-.037-.63.204-.5.703-1.24 1.129-2.147 1.129-1.443 0-2.535-1.259-2.535-2.943 0-1.684 1.092-2.943 2.535-2.943.926 0 1.666.482 2.184 1.203.185.26.352.334.63.204l.925-.407c.278-.13.389-.333.222-.611zm10.223-1.555v6.145c0 .407.148.851.555.851h.037c.296 0 .444.148.444.426v.574c0 .555-.444.758-.98.758-.889 0-1.444-.37-1.703-1.24-.666.722-1.721 1.352-3.017 1.352-2.461 0-4.312-1.98-4.312-4.757 0-2.776 1.85-4.756 4.312-4.756 1.148 0 2.092.5 2.665 1.129h.037v-.482c0-.296.167-.462.463-.462H66.6c.297 0 .464.166.464.462zm-1.962 5.978v-3.738c-.5-.63-1.425-1.074-2.35-1.074-1.573 0-2.665 1.203-2.665 2.943s1.092 2.943 2.665 2.943c.925 0 1.85-.444 2.35-1.074z" clip-rule="evenodd"></path>
  <title>IwocaPay</title>
</svg>