<svg xmlns="http://www.w3.org/2000/svg" width="150" height="30" fill="none" viewBox="0 0 150 30" class="PaymentMethodLogo ">
  <path fill="var(--paymentMethodLogoColor, #1B6BAF)" d="M58.99 0C56.183 0 54 2.21 54 5.053v12.631c1.248.79 2.651 1.263 4.21 1.263 1.404 0 2.496-1.105 2.652-2.526V9.474h4.21v6.631c0 2.527-1.403 4.737-5.926 4.737-1.715 0-3.43-.316-4.99-.631V30h7.485c2.807 0 4.99-2.21 4.99-5.053V0h-7.64z"></path>
  <path fill="var(--paymentMethodLogoColor, #D02644)" d="M73.42 0c-2.842 0-5.052 2.234-5.052 5.106v6.064c1.263-1.276 3.474-2.074 7.105-1.915 1.421.16 2.684.32 3.948.639v2.393a10.669 10.669 0 00-3.79-1.276 4.177 4.177 0 00-4.421 3.51c-.158 2.234 1.421 4.15 3.474 4.468h.79c1.42-.16 2.683-.638 3.789-1.276v2.393c-1.264.32-2.685.639-3.948.639-3.631.16-5.842-.639-7.105-1.915V30h7.579c2.842 0 5.052-2.234 5.052-5.106V0h-7.42z"></path>
  <path fill="var(--paymentMethodLogoColor, #46A548)" d="M87.538 0C84.66 0 82.42 2.21 82.42 5.053v4.42h7.835c1.439-.157 2.718 1.106 2.878 2.527v.158c0 1.42-.96 2.526-2.398 2.684 1.599 0 2.878 1.263 3.038 2.842 0 1.58-1.44 2.842-3.038 2.842H82.42V30h7.515c2.878 0 5.117-2.21 5.117-5.053V0h-7.515zm-1.919 18.79h3.678c.799-.316 1.279-1.106 1.119-2.053-.16-.474-.64-.947-1.12-1.105H85.62v3.158zm4.477-6.316c0-.632-.48-1.264-1.12-1.421H85.62v2.842h3.358c.64-.158 1.119-.79 1.119-1.421z"></path>
  <title>JCB</title>
</svg>