<svg width="150" height="30" viewBox="0 0 150 30" fill="none" xmlns="http://www.w3.org/2000/svg" class="PaymentMethodLogo ">
    <path fill-rule="evenodd" clip-rule="evenodd" d="M64 9.66667C64 8.19391 65.1939 7 66.6667 7H84c1.4728 0 2.6667 1.19391 2.6667 2.66667v.16666H64v-.16666Zm0 3.00003v7.6666C64 21.8061 65.1939 23 66.6667 23H84c1.4728 0 2.6667-1.1939 2.6667-2.6667v-7.6666H64Zm2.8333 7.0833c0-.7824.6343-1.4167 1.4167-1.4167h1.4167c.7824 0 1.4166.6343 1.4166 1.4167 0 .7824-.6342 1.4167-1.4166 1.4167H68.25c-.7824 0-1.4167-.6343-1.4167-1.4167Z" fill="#4F5B76"></path>
  </svg>


  