<svg xmlns="http://www.w3.org/2000/svg" width="150" height="30" fill="none" viewBox="0 0 150 30" class="PaymentMethodLogo ">
  <path fill="var(--paymentMethodLogoColor, #000)" fill-rule="evenodd" d="M49.782 8.843h-1.676a.466.466 0 00-.465.465v10.428c0 .258.208.466.465.466h1.676a.465.465 0 00.466-.466V9.308a.466.466 0 00-.466-.465zM45.732 17.595h-4.516V9.308a.466.466 0 00-.466-.465h-1.675a.466.466 0 00-.466.465v10.428c0 .257.208.466.466.466h6.657a.466.466 0 00.465-.466V18.06a.466.466 0 00-.465-.465zM70.638 11.45a.466.466 0 00.466-.466V9.308a.466.466 0 00-.466-.465h-6.657a.466.466 0 00-.465.465v10.428c0 .257.208.466.465.466h6.657a.466.466 0 00.466-.466V18.06a.466.466 0 00-.466-.465h-4.515v-1.77h4.515a.466.466 0 00.466-.465v-1.676a.466.466 0 00-.466-.466h-4.515V11.45h4.515zM61.28 8.843h-1.675a.466.466 0 00-.466.465v6.034l-4.386-6.271c-.124-.178-.31-.228-.516-.228-.025-.005-.052 0-.08 0h-1.675a.466.466 0 00-.466.465v10.428c0 .258.209.466.466.466h1.676a.465.465 0 00.466-.466v-6.302l4.572 6.539a.575.575 0 00.054.064.465.465 0 00.322.165h1.709a.465.465 0 00.465-.466V9.308a.466.466 0 00-.465-.465z" clip-rule="evenodd"></path>
  <path fill="var(--paymentMethodLogoColor, #08BF5B)" fill-rule="evenodd" d="M109.452 26H76.93c-.704 0-1.276-.57-1.276-1.276V5.275c0-.704.572-1.275 1.276-1.275h32.522c.704 0 1.275.571 1.275 1.275v19.45c0 .704-.571 1.275-1.275 1.275z" clip-rule="evenodd"></path>
  <path fill="var(--paymentMethodLogoColor, #fff)" fill-rule="evenodd" d="M85.975 12.58c0-.742-.524-1.308-1.236-1.308h-1.525v2.615h1.525c.712 0 1.236-.567 1.236-1.308zm2.325 0c0 1.932-1.555 3.487-3.56 3.487h-1.526v2.855c0 .189-.154.342-.343.342h-1.64a.342.342 0 01-.343-.342V9.434c0-.189.154-.342.343-.342h3.508c2.006 0 3.56 1.555 3.56 3.487zM94.753 15.631c0-1.09-.726-1.773-1.729-1.773-1.003 0-1.73.683-1.73 1.773 0 1.09.727 1.773 1.73 1.773 1.003 0 1.73-.683 1.73-1.773zm2.18-3.453v6.906c0 .1-.08.18-.18.18h-1.82a.18.18 0 01-.18-.18v-.503c-.48.552-1.192.886-2.165.886-1.903 0-3.473-1.67-3.473-3.836 0-2.165 1.57-3.836 3.473-3.836.974 0 1.686.334 2.165.886v-.503c0-.1.081-.18.18-.18h1.82c.1 0 .18.08.18.18zM104.187 12.188l-1.673 4.213-1.73-4.216a.3.3 0 00-.278-.187h-1.855a.18.18 0 00-.166.249l2.885 7.035-1.051 2.649a.18.18 0 00.167.247h1.856a.3.3 0 00.279-.19l3.868-9.743a.18.18 0 00-.168-.247h-1.855a.299.299 0 00-.279.19z" clip-rule="evenodd"></path>
  <title>LinePay</title>
</svg>