<svg xmlns="http://www.w3.org/2000/svg" width="150" height="30" fill="none" viewBox="0 0 150 30" class="PaymentMethodLogo ">
  <g clip-path="url(#clip0_121_10758-payment-method-logo-Link)">
    <path fill="var(--paymentMethodLogoColor, #000)" fill-rule="evenodd" d="M59.217 6.804c0-.998.806-1.804 1.804-1.804.997 0 1.803.806 1.803 1.804 0 .997-.806 1.803-1.803 1.803a1.802 1.802 0 01-1.804-1.803zM53 5.19h3.226v19.53H53V5.191zm43.636 5.6c-1.862 3.974-3.944 6.863-3.944 6.863l4.428 7.053h-3.812l-2.727-4.355C87.853 23.475 85.14 25 82.53 25c-3.182 0-4.487-2.273-4.487-4.853 0-.289.004-.644.008-.986v-.001c.003-.32.007-.628.007-.86 0-3.417-.352-4.385-1.51-4.224-2.215.308-5.573 5.337-7.757 10.645h-3.035v-13.93h3.225v6.936c1.848-3.094 3.534-5.762 6.247-6.789 1.569-.6 2.903-.337 3.592-.029 2.507 1.1 2.493 3.798 2.463 7.405-.014.484-.014.997-.014 1.54 0 1.319.366 1.89 1.26 1.979.866.088 1.526-.337 1.526-.337V5.19h3.225v13.988s2.801-2.551 5.763-8.387h3.592zm-34.003 0h-3.226v13.93h3.226v-13.93z" clip-rule="evenodd"></path>
  </g>
  <defs>
    <clipPath id="clip0_121_10758-payment-method-logo-Link">
      <path fill="var(--paymentMethodLogoColor, #fff)" d="M0 0h45v20H0z" transform="translate(53 5)"></path>
    </clipPath>
  </defs>
  <title>Link</title>
</svg>