<svg xmlns="http://www.w3.org/2000/svg" width="150" height="30" fill="none" viewBox="0 0 150 30" class="PaymentMethodLogo ">
  <path fill="var(--paymentMethodLogoColor, #222)" d="M100.652 12.336l-2.307 5.612-2.336-5.612h-2.314l3.61 7.935-1.9 4.369H97.4l5.399-12.304h-2.147zM78.733 8.143h-4.89V21.11h2.053v-5.035h2.837c2.698 0 4.309-1.65 4.309-3.94.007-2.322-1.604-3.99-4.309-3.99zm.348 6.028h-3.148V10.05h3.155c1.387 0 1.88 1.256 1.88 2.09 0 .834-.495 2.031-1.88 2.031h-.007zm9.126-1.95c-2.66 0-4.594 1.88-4.594 4.471 0 2.635 1.81 4.474 4.401 4.474 1.065 0 2.21-.62 2.627-1.394v1.338h2.078v-4.418c0-2.717-1.744-4.471-4.512-4.471zm-.019 7.15c-1.527 0-2.479-1.027-2.479-2.68 0-1.528 1.068-2.68 2.48-2.68 1.504 0 2.426 1.053 2.426 2.68.007 1.301-.818 2.681-2.427 2.681v-.001z"></path>
  <path fill="var(--paymentMethodLogoColor, #FF0211)" d="M58.495 25.817l8.665-4.265c.3-.146.552-.372.728-.652.177-.28.27-.602.27-.932v-9.936c0-.33-.093-.652-.27-.932a1.792 1.792 0 00-.728-.652l-8.665-4.265a1.855 1.855 0 00-1.63 0l-8.663 4.265c-.3.147-.552.373-.728.652-.177.28-.27.603-.27.932v9.936c0 .33.093.652.27.932.176.28.428.506.728.652l8.663 4.265a1.855 1.855 0 001.63 0z"></path>
  <path fill="var(--paymentMethodLogoColor, #4DC9FF)" d="M64.905 14.763c2.594 0 4.697-2.065 4.697-4.612 0-2.548-2.103-4.613-4.697-4.613s-4.697 2.065-4.697 4.613c0 2.547 2.103 4.612 4.697 4.612z"></path>
  <path fill="var(--paymentMethodLogoColor, #fff)" d="M50.086 18.579l-.917-.453v-2.668c0-.78.448-1.56 1.372-1.466.864.091 1.53.845 1.738 1.338a1.17 1.17 0 011.045-.278c.474.062 2.253.733 2.253 3.096v3.15l-1.006-.497v-2.946c0-.864-.538-1.586-1.262-1.669-.298-.035-.56.202-.56.71v2.995l-.924-.456V16.65c0-1.23-.808-1.619-1.163-1.65-.2-.022-.57.095-.57.733l-.006 2.846z"></path>
  <title>MerPay</title>
</svg>