<svg xmlns="http://www.w3.org/2000/svg" width="150" height="30" fill="none" viewBox="0 0 150 30" class="PaymentMethodLogo ">
  <path fill="var(--paymentMethodLogoColor, #5A78FF)" d="M44.786 28a2.2 2.2 0 01-2.032-1.357L35.167 8.328a2.196 2.196 0 011.189-2.87l7.946-3.29a2.196 2.196 0 012.87 1.188l7.586 18.316a2.197 2.197 0 01-1.188 2.868l-7.947 3.293c-.265.11-.55.167-.837.167zm.357-24.818c-.133 0-.265.026-.388.078l-7.947 3.29a1.014 1.014 0 00-.548 1.325l7.586 18.316a1.015 1.015 0 001.325.55l7.946-3.294a1.013 1.013 0 00.549-1.325L46.079 3.808a1.015 1.015 0 00-.936-.626z"></path>
  <path fill="var(--paymentMethodLogoColor, url(#paint0_linear_19237_6408-payment-method-logo-MobilePay))" d="M46.58 5.016l1.092-.453 3.004 7.252-1.093.453-3.003-7.252z" opacity=".7"></path>
  <path fill="var(--paymentMethodLogoColor, url(#paint1_linear_19237_6408-payment-method-logo-MobilePay))" d="M54.253 20.453l-1.092.453-3.4-8.21 1.092-.452 3.4 8.21z" opacity=".7"></path>
  <path fill="var(--paymentMethodLogoColor, #5A78FF)" d="M51.781 15.464c-2.273.943-4.17 2.242-5.412 3.808l-3.204-7.737a13.526 13.526 0 015.413-3.807c2.272-.942 4.568-1.398 6.52-1.133l3.203 7.736a13.521 13.521 0 00-6.52 1.133z"></path>
  <path fill="var(--paymentMethodLogoColor, #5A78FF)" d="M52.825 17.824c-2.46 0-4.712.475-6.457 1.445v-7.822c2-1.01 4.218-1.506 6.457-1.446 2.46 0 4.756.456 6.457 1.448v7.822a13.52 13.52 0 00-6.457-1.447zm12.566.007l1.99-6.291a.207.207 0 01.186-.159h.998a.246.246 0 01.196.159l1.55 3.969c.03.079.109.086.135 0l1.538-3.97a.245.245 0 01.196-.158h1a.208.208 0 01.184.159l1.968 6.29a.15.15 0 01-.147.216h-1.188a.174.174 0 01-.177-.136l-1.263-4.086c-.019-.08-.11-.08-.136 0l-1.507 4.056a.223.223 0 01-.215.166h-.697c-.11 0-.166-.06-.208-.166l-1.538-4.056c-.03-.08-.109-.08-.128 0l-1.293 4.086a.177.177 0 01-.184.136H65.52a.147.147 0 01-.129-.215zm10.317-2.262a2.639 2.639 0 112.64 2.586 2.552 2.552 0 01-2.64-2.586zm3.92 0a1.296 1.296 0 10-1.28 1.383 1.33 1.33 0 001.273-1.383h.008zm3.68 2.07c-.098-.08-.185-.05-.185.086v.128a.185.185 0 01-.177.185h-.92a.192.192 0 01-.185-.185v-6.29a.192.192 0 01.185-.186h.969a.185.185 0 01.177.185v1.794c0 .129.087.166.226.068a2.153 2.153 0 011.285-.43c1.342 0 2.371 1.131 2.371 2.586a2.472 2.472 0 01-2.412 2.586 2.005 2.005 0 01-1.334-.527zm2.412-2.059a1.297 1.297 0 10-2.586 0 1.311 1.311 0 001.286 1.361 1.33 1.33 0 001.3-1.372v.011zm2.145-3.743a.754.754 0 111.509 0 .754.754 0 01-1.51 0zm.068 6.031v-4.56a.184.184 0 01.177-.185h.969a.193.193 0 01.2.184v4.546a.193.193 0 01-.185.185h-.984a.184.184 0 01-.177-.185v.015zm2.423-1.492v-4.814a.185.185 0 01.178-.185h.968a.193.193 0 01.185.185v4.844c0 .313.136.52.479.52a.185.185 0 01.185.185v.803a.185.185 0 01-.185.177c-1.29 0-1.81-.422-1.81-1.715zm2.356-.777a2.55 2.55 0 014.906-.957c.127.31.192.641.19.976 0 .177-.048.324-.226.324h-3.37c-.086 0-.116.05-.109.128a1.13 1.13 0 001.207.97 1.197 1.197 0 00.93-.423.377.377 0 01.314-.158h.9c.159 0 .227.109.166.264a2.581 2.581 0 01-4.9-1.131l-.008.007zm3.578-.452c.067 0 .098-.03.086-.11a1.13 1.13 0 00-1.13-.92 1.161 1.161 0 00-1.131.894c-.02.068 0 .136.079.136h2.096zm2.333 2.706v-6.29a.185.185 0 01.177-.186h3.087c1.41 0 2.371.822 2.371 2.206 0 1.383-1.089 2.235-2.439 2.235h-1.636a.161.161 0 00-.133.049.17.17 0 00-.038.063.179.179 0 00-.006.073v1.85a.193.193 0 01-.184.185h-1.018a.184.184 0 01-.181-.185zm3.196-3.174a1.065 1.065 0 001.029-1.089.997.997 0 00-.632-.965 1.004 1.004 0 00-.4-.072h-1.648c-.116 0-.165.06-.165.178v1.783c0 .117.049.177.165.177l1.651-.011zm2.914.89a2.5 2.5 0 011.474-2.37c.302-.135.627-.208.957-.216.482.003.946.181 1.305.502.086.079.184.067.184-.05v-.128c0-.098.08-.177.178-.177h.919a.192.192 0 01.185.185v3.234c0 .245.087.354.256.377a.17.17 0 01.166.158v.852a.166.166 0 01-.166.166c-.648 0-1.029-.185-1.244-.558-.06-.098-.128-.117-.226-.019a2.16 2.16 0 01-1.579.656 2.484 2.484 0 01-2.409-2.612zm3.92 0a1.28 1.28 0 00-.34-.977 1.294 1.294 0 00-2.238.977 1.297 1.297 0 00.341.977 1.294 1.294 0 002.237-.977zm2.16 4.195v-.802a.187.187 0 01.057-.126.183.183 0 01.128-.052 1.375 1.375 0 001.41-.942.546.546 0 00-.038-.377l-1.802-4.079a.174.174 0 01-.022-.089.178.178 0 01.181-.175h.968c.098 0 .159.08.196.178l1.131 2.608c.079.208.207.196.294 0l1.078-2.616c.038-.098.087-.158.185-.158h.931a.17.17 0 01.166.234l-1.855 4.387c-.674 1.599-1.391 2.194-2.823 2.194a.196.196 0 01-.129-.056.194.194 0 01-.056-.129z"></path>
  <g opacity=".4">
    <path fill="var(--paymentMethodLogoColor, url(#paint2_linear_19237_6408-payment-method-logo-MobilePay))" d="M51.781 15.464c-2.273.943-4.17 2.242-5.412 3.808l-3.204-7.737a13.526 13.526 0 015.413-3.807c2.272-.942 4.568-1.398 6.52-1.133l3.203 7.736a13.521 13.521 0 00-6.52 1.133z" opacity=".9"></path>
    <path fill="var(--paymentMethodLogoColor, url(#paint3_linear_19237_6408-payment-method-logo-MobilePay))" d="M51.781 15.464c-2.273.943-4.17 2.242-5.412 3.808l-3.204-7.737a13.526 13.526 0 015.413-3.807c2.272-.942 4.568-1.398 6.52-1.133l3.203 7.736a13.521 13.521 0 00-6.52 1.133z" opacity=".7"></path>
  </g>
  <defs>
    <linearGradient id="paint0_linear_19237_6408-payment-method-logo-MobilePay" x1="323.507" x2="438.91" y1="345.852" y2="58.445" gradientUnits="userSpaceOnUse">
      <stop stop-color="#504678"></stop>
      <stop offset=".302" stop-color="#504678" stop-opacity=".616"></stop>
      <stop offset=".608" stop-color="#504678" stop-opacity=".283"></stop>
      <stop offset=".852" stop-color="#504678" stop-opacity=".076"></stop>
      <stop offset="1" stop-color="#504678" stop-opacity="0"></stop>
    </linearGradient>
    <linearGradient id="paint1_linear_19237_6408-payment-method-logo-MobilePay" x1="-243.928" x2="-385.035" y1="-371.694" y2="-74.83" gradientUnits="userSpaceOnUse">
      <stop stop-color="#504678"></stop>
      <stop offset=".302" stop-color="#504678" stop-opacity=".616"></stop>
      <stop offset=".608" stop-color="#504678" stop-opacity=".283"></stop>
      <stop offset=".852" stop-color="#504678" stop-opacity=".076"></stop>
      <stop offset="1" stop-color="#504678" stop-opacity="0"></stop>
    </linearGradient>
    <linearGradient id="paint2_linear_19237_6408-payment-method-logo-MobilePay" x1="494.435" x2="1913.57" y1="603.296" y2="289.636" gradientUnits="userSpaceOnUse">
      <stop stop-color="#504678"></stop>
      <stop offset=".179" stop-color="#504678" stop-opacity=".872"></stop>
      <stop offset=".526" stop-color="#504678" stop-opacity=".536"></stop>
      <stop offset="1" stop-color="#504678" stop-opacity="0"></stop>
    </linearGradient>
    <linearGradient id="paint3_linear_19237_6408-payment-method-logo-MobilePay" x1="1614.93" x2="1554.32" y1="321.105" y2="163.91" gradientUnits="userSpaceOnUse">
      <stop stop-color="#504678"></stop>
      <stop offset=".643" stop-color="#504678" stop-opacity=".332"></stop>
      <stop offset="1" stop-color="#504678" stop-opacity="0"></stop>
    </linearGradient>
  </defs>
  <title>MobilePay</title>
</svg>