<svg xmlns="http://www.w3.org/2000/svg" width="150" height="30" fill="none" viewBox="0 0 150 30" class="PaymentMethodLogo ">
  <path fill="var(--paymentMethodLogoColor, #2D32AA)" fill-rule="evenodd" d="M76.78 12.815c-.576-1.47-2.11-2.3-3.963-2.3-2.173 0-3.898 1.342-4.345 3.77l8.307-1.47zm1.213 5.432l2.748 2.237c-1.214 1.533-3.578 3.578-7.604 3.514-5.24 0-8.82-3.514-8.82-8.499C64.318 10.387 67.96 7 72.69 7c3.579 0 6.455 2.109 7.733 5.112a8.45 8.45 0 01.703 3.387L68.79 17.672c.767 1.79 2.492 2.812 4.41 2.812 2.428 0 3.898-1.214 4.792-2.237zM47 8.406s4.026-1.342 7.86-1.342c5.752 0 8.052 2.364 8.052 7.285v9.202h-4.154v-9.202c0-2.3-1.086-3.77-3.834-3.77-2.237 0-3.706.638-3.706.638v12.398H47V8.405zm52.21-.895h4.089v16.04h-4.09V7.511zm-1.15 0h-5.05l-3.834 4.73-2.044-2.685c-1.023-1.342-2.748-2.109-4.41-2.109H80.23l6.326 7.988-6.518 8.116h4.985l4.09-4.984 2.364 2.94c1.022 1.341 2.748 2.044 4.41 2.044h2.428l-6.582-8.243 6.326-7.797z" clip-rule="evenodd"></path>
  <title>Nexi</title>
</svg>