<svg xmlns="http://www.w3.org/2000/svg" width="150" height="30" fill="none" viewBox="0 0 150 30" class="PaymentMethodLogo ">
  <path fill="var(--paymentMethodLogoColor, #8BBD06)" d="M53.9 17.625c-2.495 0-4.525-2.026-4.525-4.61 0-2.585 2.03-4.616 4.525-4.616 2.478 0 4.519 2.03 4.519 4.616 0 2.584-2.041 4.61-4.519 4.61zm0-11.622c-3.925 0-6.998 3.077-6.998 7.011 0 3.93 3.073 7.012 6.998 7.012 3.915 0 6.988-3.082 6.988-7.011 0-3.935-3.073-7.012-6.988-7.012zM89.896 12.83c-.023-3.756-3.06-6.81-6.776-6.81-3.823 0-6.82 3.065-6.82 6.978 0 1.837.704 3.581 1.971 4.913 1.29 1.347 2.992 2.09 4.803 2.09 2.066 0 4.962-.99 6.338-3.802l.036-.09h-2.77l-.017.02c-.744.89-2.15 1.489-3.487 1.489-1.699 0-3.737-1.119-4.295-3.644h10.963c.024-.261.054-.784.054-1.144zM78.96 11.744c.337-1.692 1.959-3.345 4.14-3.345 2.177 0 3.797 1.653 4.13 3.345h-8.27zM68.612 8.319c-2.47 0-3.726 1.322-3.726 3.94v7.747h-2.537v-7.93c.024-1.39.271-2.374.84-3.296.671-1.037 2.268-2.781 5.423-2.781 3.147 0 4.748 1.744 5.42 2.78.562.923.817 1.907.832 3.296v7.931H72.33v-7.748c0-2.617-1.248-3.94-3.718-3.94zM103.083 6.003L97.737 19.03l-1.322 3.223-.73 1.781h-2.637l2.046-5.002L89.63 6.003h2.786l4 9.795 4.009-9.795h2.658z"></path>
  <title>Oney</title>
</svg>