<svg xmlns="http://www.w3.org/2000/svg" width="150" height="30" fill="none" viewBox="0 0 150 30" class="PaymentMethodLogo ">
  <g clip-path="url(#clip0_19174_9395-payment-method-logo-Paidy)">
    <path fill="var(--paymentMethodLogoColor, url(#paint0_linear_19174_9395-payment-method-logo-Paidy))" d="M48.063 13.611c-.09-.117-1.024-1.269-1.024-1.269v7.3c0 .597.484 1.081 1.085 1.081s1.085-.484 1.085-1.08l-.015-4.812c-.335-.3-.651-.634-1.13-1.22z"></path>
    <path fill="var(--paymentMethodLogoColor, url(#paint1_linear_19174_9395-payment-method-logo-Paidy))" d="M57.953 17.914c-.373 0-.724-.08-1.041-.228-.024.228.07.953-1.076 1.79-.085.059-4.672 2.966-5.633 3.45-1.241.629-2.628.436-3.444.017-.316-.132-4.34-2.523-4.502-2.64-.3-.213-.792-.625-.948-1.157-.143-.46-.137-1.178-.137-1.178v-6.075c0-.94.278-2.625 1.99-3.376 1.84-.679 2.84.387 3.797 1.554.074.09 1.94 2.556 2.762 3.287 1.061.946 2.133 1.43 3.424 1.43 3.474 0 4.795-2.747 4.795-4.774-.002-2.63-2.154-4.764-4.797-4.764-1.64 0-3.148.831-4.02 2.187.16.184.57.69.633.764.017.017.707.909.744.96.12-.145 1.111-1.722 2.64-1.722 1.567 0 2.585 1.22 2.585 2.575 0 1.417-1.152 2.563-2.54 2.563-.823 0-1.355-.293-2.008-.877-.653-.583-2.29-2.753-2.29-2.753-.142-.19-1.273-1.558-2.082-2.096-1.011-.681-2.432-1.089-4.327-.455C40.584 7.029 39 9.075 39 11.893l.009 6.075c0 .232-.018.99.171 1.703.308 1.176.87 1.84 2.035 2.565.556.312 3.756 2.228 4.251 2.492.94.5 1.873.751 3.125.753a5.869 5.869 0 002.701-.648c1.282-.653 5.448-3.322 5.711-3.487 1.222-.824 2.218-2.124 2.116-3.718a2.53 2.53 0 01-1.166.286z"></path>
    <path fill="var(--paymentMethodLogoColor, url(#paint2_linear_19174_9395-payment-method-logo-Paidy))" d="M57.958 16.742a1.27 1.27 0 001.273-1.269 1.273 1.273 0 00-2.547 0c0 .703.57 1.27 1.274 1.27z"></path>
    <path fill="var(--paymentMethodLogoColor, #1C1C1C)" d="M88.26 20.051c-.716 0-1.314-.557-1.314-1.234v-6.97c0-.677.598-1.234 1.315-1.234s1.314.557 1.314 1.234v6.97c0 .677-.597 1.234-1.314 1.234zM103.638 23.993c0 .359.279.638.598.677.717.08 1.872.08 2.509-.438.438-.358.796-.876 1.075-1.672l3.106-10.394c.279-.797-.318-1.594-1.155-1.594-.557 0-1.035.359-1.155.877l-1.672 5.814-1.673-5.775c-.159-.557-.637-.915-1.234-.915-.877 0-1.474.876-1.195 1.672l2.708 8.96c.159.518.119.877-.159 1.076-.279.239-.638.358-1.115.358a.697.697 0 00-.677.677v.677h.039zM66.676 24.71a1.198 1.198 0 01-1.195-1.194v-8.84c0-1.674 1.155-4.302 4.62-4.302.597 0 4.3 0 4.3 4.859 0 4.699-2.707 4.978-3.822 4.978-1.474 0-2.43-.916-2.708-1.434v4.74c0 .636-.518 1.194-1.195 1.194zm5.257-9.398c0-.916-.16-1.633-.518-2.15-.359-.518-.876-.757-1.514-.757-.637 0-1.154.239-1.513.757-.318.438-.478 1.155-.478 2.15 0 .916.16 1.593.518 2.031.358.518.876.757 1.513.757.598 0 1.115-.239 1.474-.757.358-.478.518-1.155.518-2.03zM83.575 20.082c.677 0 1.194-.557 1.194-1.194v-4.341c0-1.673-1.155-4.301-4.62-4.301-.597 0-4.3 0-4.3 4.858 0 4.7 2.708 4.979 3.823 4.979 1.473 0 2.43-.916 2.708-1.434v.239c0 .637.518 1.194 1.195 1.194zm-5.257-4.898c0-.916.16-1.633.517-2.15.359-.518.877-.757 1.514-.757s1.155.239 1.513.757c.319.438.478 1.154.478 2.15 0 .916-.16 1.593-.518 2.031-.358.518-.876.757-1.513.757-.597 0-1.115-.24-1.474-.757-.358-.478-.517-1.155-.517-2.03zM88.276 6.287c-.751 0-1.37.63-1.37 1.394 0 .764.619 1.394 1.37 1.394.75 0 1.37-.63 1.37-1.394 0-.764-.606-1.394-1.37-1.394zM99.417 5.993c-.677 0-1.195.558-1.195 1.195v4.66a3.445 3.445 0 00-1.155-1.116c-.438-.238-.955-.358-1.553-.358-1.115 0-2.03.478-2.748 1.394-.677.916-1.035 2.11-1.035 3.584 0 1.514.358 2.708 1.035 3.584.359.439.837.797 1.434.996.597.2 1.195.319 1.832.319 1.155 0 2.19-.28 3.186-.877.956-.597 1.474-1.752 1.474-3.424V7.188a1.269 1.269 0 00-1.275-1.195zm-1.672 11.43c-.359.518-.837.757-1.514.757s-1.195-.24-1.513-.757c-.359-.518-.518-1.234-.518-2.15 0-.837.16-1.514.518-1.992.358-.517.836-.756 1.473-.756.638 0 1.155.239 1.514.716.358.518.517 1.195.517 2.032 0 .916-.159 1.672-.477 2.15z"></path>
  </g>
  <defs>
    <linearGradient id="paint0_linear_19174_9395-payment-method-logo-Paidy" x1="40.661" x2="57.8" y1="23.09" y2="7.328" gradientUnits="userSpaceOnUse">
      <stop stop-color="#A6009C"></stop>
      <stop offset="1" stop-color="#FF009C"></stop>
    </linearGradient>
    <linearGradient id="paint1_linear_19174_9395-payment-method-logo-Paidy" x1="40.747" x2="52.43" y1="28.839" y2="8.601" gradientUnits="userSpaceOnUse">
      <stop offset=".009" stop-color="#A6009C"></stop>
      <stop offset="1" stop-color="#FF009C"></stop>
    </linearGradient>
    <linearGradient id="paint2_linear_19174_9395-payment-method-logo-Paidy" x1="44.559" x2="62.353" y1="27.791" y2="11.427" gradientUnits="userSpaceOnUse">
      <stop stop-color="#A6009C"></stop>
      <stop offset="1" stop-color="#FF009C"></stop>
    </linearGradient>
    <clipPath id="clip0_19174_9395-payment-method-logo-Paidy">
      <path fill="var(--paymentMethodLogoColor, #fff)" d="M0 0h72v20.25H0z" transform="translate(39 5.25)"></path>
    </clipPath>
  </defs>
  <title>Paidy</title>
</svg>