<svg xmlns="http://www.w3.org/2000/svg" width="150" height="31" fill="none" viewBox="0 0 150 31" class="PaymentMethodLogo ">
  <path fill="var(--paymentMethodLogoColor, #FF4785)" d="M90.767 21.662h1.8v6.31h-1.8v-6.31zm.89-2.8c-.578 0-1.045.466-1.045 1.066 0 .578.467 1.067 1.044 1.067.578 0 1.045-.467 1.045-1.067a1.034 1.034 0 00-1.045-1.066zm8 2.8v7.755h-1.8v-1.733c-.423.2-.867.31-1.356.31-1.734 0-3.156-1.421-3.156-3.177 0-1.755 1.4-3.178 3.156-3.178.489 0 .955.111 1.355.312v-.267h1.8v-.022zm-1.8 3.155c0-.755-.6-1.355-1.334-1.355-.733 0-1.333.6-1.333 1.355 0 .756.6 1.356 1.333 1.356s1.333-.622 1.333-1.356zM73.522 23.44c.445 0 .867.223 1.111.623l1.511-1a3.135 3.135 0 00-2.622-1.445c-1.733 0-3.155 1.422-3.155 3.178 0 1.755 1.4 3.178 3.155 3.178 1.045 0 2.022-.534 2.622-1.422l-1.489-.978c-.244.378-.666.6-1.11.6-.734 0-1.334-.6-1.334-1.356-.022-.755.578-1.378 1.311-1.378zm-17.11 1.378c0 1.756-1.4 3.178-3.156 3.178-.49 0-.956-.111-1.378-.333v1.755h-1.8v-7.755h1.8v.289c.422-.2.889-.334 1.378-.334 1.755 0 3.155 1.445 3.155 3.2zm-1.8 0c0-.755-.6-1.355-1.334-1.355-.734 0-1.334.6-1.334 1.355 0 .756.6 1.356 1.334 1.356.733 0 1.333-.622 1.333-1.356zm8.644 3.156h-1.8v-.29c-.4.2-.867.312-1.334.312-1.733 0-3.155-1.422-3.155-3.178 0-1.755 1.4-3.178 3.155-3.178.467 0 .934.111 1.334.312v-.267h1.8v6.289zm-1.8-3.334a1.347 1.347 0 00-1.334-1.2c-.733 0-1.333.6-1.333 1.356 0 .755.6 1.355 1.333 1.355.69 0 1.245-.533 1.334-1.2v-.31zM86.7 21.684a3.55 3.55 0 00-1.156.222v-.244h-1.8v6.31h1.8v-3.31c0-1.111 1.022-1.156 1.156-1.156.311 0 .578.089.778.289.222.2.333.511.333.911v3.222h1.8v-3.244c0-1.978-1.467-3-2.911-3zm-16.311 0h-1.822l-1.29 3.333-1.4-3.333h-1.955l2.49 5.555-.868 2.2h1.823l3.022-7.755zm12.578 3.133c0 1.756-1.4 3.178-3.156 3.178-1.733 0-3.156-1.422-3.156-3.178 0-1.755 1.4-3.178 3.156-3.178 1.733-.022 3.156 1.423 3.156 3.178zm-1.8 0c0-.755-.6-1.355-1.334-1.355-.733 0-1.333.6-1.333 1.355 0 .756.6 1.356 1.333 1.356.734 0 1.334-.622 1.334-1.356zM84.457 1.374a7.809 7.809 0 00-4.533 1.444l-6.956 5.067a7.769 7.769 0 00-7.667-6.511c-4.288 0-7.777 3.489-7.777 7.778 0 4.288 3.489 7.777 7.777 7.777a7.896 7.896 0 004.556-1.466l6.933-5.045a7.77 7.77 0 007.667 6.511c4.289 0 7.778-3.489 7.778-7.777a7.772 7.772 0 00-7.778-7.778zM65.3 12.64a3.48 3.48 0 01-3.489-3.488 3.48 3.48 0 013.49-3.49 3.48 3.48 0 013.488 3.49 3.48 3.48 0 01-3.489 3.488zm19.156 0a3.48 3.48 0 01-3.489-3.488 3.48 3.48 0 013.489-3.49 3.48 3.48 0 013.489 3.49 3.48 3.48 0 01-3.49 3.488z"></path>
  <title>Payconiq</title>
</svg>