<svg xmlns="http://www.w3.org/2000/svg" width="150" height="30" fill="none" viewBox="0 0 150 30" class="PaymentMethodLogo ">
  <path fill="var(--paymentMethodLogoColor, #9E1791)" fill-rule="evenodd" d="M87.526 8.314c-1.53.49-2.422 1.005-3.336 1.925-3.81 3.833-2.321 10.518 2.737 12.282 1.425.496 2.735.607 3.918.331 3.038-.71 5.176-2.952 5.829-6.113.406-1.97-.324-4.542-1.763-6.209-.353-.409-.746-.743-.873-.743s-1.169 1.307-2.315 2.905c-1.146 1.598-2.168 2.877-2.27 2.844-.104-.034-.636-.586-1.182-1.227-.547-.64-1.09-1.189-1.208-1.218-.252-.063-1.184 1.093-1.184 1.47 0 .374 3.48 4.51 3.728 4.431.114-.036 1.138-1.366 2.276-2.957 1.138-1.59 2.176-2.915 2.308-2.944.8-.18 1.02 3.275.302 4.737-.507 1.032-1.743 2.31-2.643 2.734-3.703 1.743-7.98-.969-7.98-5.058 0-2.758 1.916-5.005 4.714-5.527.788-.147 1.246-.106 2.877.258.477.106.591.051.87-.418.522-.88.423-1.036-.92-1.457-1.49-.466-2.536-.478-3.885-.046zm-52.404.868c-.067.066-.122 2.925-.122 6.352v6.23h3.283l.051-2.222.052-2.224 1.921-.09c2.158-.102 2.753-.327 3.619-1.368 1.783-2.145.976-5.483-1.582-6.543-.452-.188-1.484-.256-3.858-.256-1.783 0-3.297.054-3.364.12zm15.24.262c-.118.22-.605 1.428-1.083 2.685a1707.367 1707.367 0 01-3.574 9.318c-.117.287.015.318 1.365.318h1.493l.448-1.004.447-1.003 2.424.05 2.422.051.346.953.345.953h1.552c1.406 0 1.54-.03 1.422-.318-.072-.174-.442-1.134-.823-2.132a997.968 997.968 0 00-3.453-8.893l-.506-1.27-1.304-.054c-1.186-.048-1.325-.016-1.52.346zm6.382.563c.302.528 1.257 2.212 2.122 3.744l1.574 2.784v5.23H63.55v-5.12l2.105-3.725c1.157-2.049 2.104-3.755 2.104-3.792 0-.037-.77-.067-1.712-.067h-1.712l-.797 1.77c-1.016 2.252-1.325 2.815-1.545 2.81-.097-.002-.644-1.013-1.214-2.247l-1.038-2.242-1.773-.052-1.774-.053.55.96zm12.663 5.399v6.359H72.336v-3.811c0-2.264.07-3.812.172-3.812.095 0 1.211 1.716 2.481 3.812l2.31 3.81h3.089V9.046L78.97 9.1l-1.418.053-.05 3.507c-.038 2.674-.103 3.49-.275 3.433-.123-.04-1.186-1.619-2.361-3.507l-2.137-3.433-1.66-.053-1.662-.052v6.359zm27.155-5.944c.06.228 1.124 3.07 2.363 6.314l2.252 5.898h2.722l.582-1.608c.616-1.702.875-2.118 1.14-1.831.088.095.429.928.758 1.851l.597 1.679 1.302-.005 1.302-.006 2.47-6.182a2684.2 2684.2 0 002.532-6.347c.034-.09-.677-.164-1.58-.164h-1.64l-1.058 2.949c-1.693 4.725-1.827 5.063-2.012 5.096-.097.017-.435-.709-.751-1.612l-.574-1.644.785-2.316c.571-1.683.724-2.34.559-2.403-.125-.048-.872-.062-1.659-.033l-1.431.054-1.222 3.948c-.673 2.171-1.26 3.984-1.304 4.028-.239.237-.565-.529-1.734-4.075l-1.286-3.901-1.612-.053c-1.602-.052-1.612-.05-1.501.363zM41.289 12.08c.68.675.657 1.555-.061 2.267-.504.5-.628.535-1.693.485l-1.15-.054-.053-1.344c-.03-.74-.012-1.454.04-1.588.065-.17.453-.244 1.264-.244 1.02 0 1.232.061 1.653.478zm11.351 2.904c.359 1.062.608 2.001.555 2.087-.128.205-2.587.204-2.715 0-.077-.124.511-2.183 1.083-3.79.191-.54.466-.107 1.077 1.703z" clip-rule="evenodd"></path>
  <title>PayNow</title>
</svg>