<svg xmlns="http://www.w3.org/2000/svg" width="150" height="30" fill="none" viewBox="0 0 150 30" class="PaymentMethodLogo ">
  <path fill="var(--paymentMethodLogoColor, #EE3E42)" d="M68.127 26.058h-1.054c-1.833-.006-3.318-1.48-3.323-3.3V10.735a42.233 42.233 0 018.206-.058l-3.829 15.38zm13.52-10.4c.52-2.132-2.941-4.102-8.48-4.847l-2.013 8.31c4.647.218 9.925-1.17 10.492-3.463M82.897 3.75H67.073c-1.763.006-3.216 1.375-3.314 3.123 13.256-.371 19.703 4.204 18.692 8.76-.912 4.108-5.118 5.683-11.942 6.2l-1.023 4.218h13.411c1.833-.006 3.318-1.479 3.324-3.298V7.048c-.006-1.82-1.49-3.292-3.324-3.298z"></path>
  <title>PayPay</title>
</svg>