<svg xmlns="http://www.w3.org/2000/svg" width="150" height="30" fill="none" viewBox="0 0 150 30" class="PaymentMethodLogo ">
  <path fill="var(--paymentMethodLogoColor, #3804FC)" d="M100.63 13.0199v5.94c0 .66.22 1.21.77 1.76.55.44 1.1.66 1.87.66h3.85v-1.1h-3.74c-.44 0-.77-.22-1.1-.55-.33-.33-.44-.77-.44-1.21v-5.28c0-.44.11-.77.44-1.1.33-.33.66-.44 1.1-.44h3.74v-1.1h-3.85c-.66 0-1.21.22-1.76.55-.55.44-.88.99-.88 1.87ZM118.34 12.7999c0-.66-.22-1.21-.66-1.65-.22-.22-.44-.33-.66-.44-.11 0-.33-.11-.88-.11h-6.05v1.1h5.83c1.21 0 1.43.66 1.43 1.1v1.32h-4.84c-1.65 0-2.42.99-2.42 3.08v1.54c0 .66.22 1.21.77 1.76s1.1.77 1.65.77h3.63c.55 0 1.1-.22 1.65-.77.44-.44.66-1.1.66-1.65v-6.05h-.11Zm-1.21 6.05c0 .22-.11.33-.22.66-.22.33-.44.66-.77.66-.11 0-.33.11-.88.11h-2.42c-.66 0-.99-.11-1.21-.22-.22-.11-.33-.33-.44-.55-.11-.22-.11-.44-.11-.55v-1.98c0-.55.22-1.54 1.76-1.54h4.29v3.41ZM124.06 11.81h.55v-1.1h-.66c-.77 0-1.43.22-1.87.66-.33.33-.55.99-.55 1.87v8.25h1.1v-8.25c.11-.88.55-1.43 1.43-1.43ZM135.17 6.63989h-1.1v3.96001h-4.51c-1.76 0-2.64.77-2.64 2.42v5.83c0 .77.22 1.32.55 1.76.55.55 1.1.77 1.76.77h3.52c.66 0 1.21-.22 1.65-.77.44-.55.66-1.21.66-1.98V6.63989h.11Zm-1.1 11.99001c0 .44-.11.88-.44 1.21-.33.33-.66.44-1.1.44h-3.19c-.33 0-.66-.11-.99-.44-.22-.33-.33-.66-.33-.99v-5.5c0-.99.55-1.54 1.54-1.54h4.4v6.82h.11ZM36.06 14.0099c0-.44-.22-.66-.55-.66h-2.09c-.44 0-.77.33-.77.77v3.74c0 .55.33.77.88.77h1.87c.22 0 .33-.11.44-.22.11-.11.22-.22.22-.44v-3.96Zm-6.05-.55c0-.88.22-1.65.66-2.09.22-.22.44-.33.77-.55.33-.11.66-.22.99-.22h3.74c1.65 0 2.53.88 2.53 2.75v5.61c0 .66-.22 1.21-.77 1.65-.44.44-1.1.77-1.76.77h-3.52v4.07h-2.64v-11.99ZM43.43 18.0799c0 .11.11.33.22.33.11.11.33.22.44.22h1.98c.44 0 .66-.22.66-.55v-.77c0-.44-.22-.66-.77-.66h-1.98c-.22 0-.44 0-.55.11-.11.11-.11.33-.11.55v.77h.11Zm3.41-4.18c0-.44-.22-.55-.66-.55H40.9v-2.75h5.94c1.76 0 2.64.88 2.64 2.53v5.72c0 .77-.22 1.32-.66 1.76-.44.44-.99.77-1.76.77h-3.63c-1.76 0-2.64-.77-2.64-2.42v-2.2c0-1.65.88-2.53 2.53-2.53h3.52v-.33ZM56.9601 22.6999c.22 0 .44-.11.55-.22.11-.11.22-.22.22-.44v-.66h-3.41c-.44 0-.77-.11-1.1-.22-.33-.11-.55-.33-.88-.55-.22-.33-.44-.55-.55-.88-.11-.33-.22-.66-.22-1.1v-8.03h2.64v7.15c0 .55.22.88.66.88h1.87c.22 0 .44-.11.55-.22.11-.11.22-.22.22-.44v-7.37h2.64v11.77c0 .88-.22 1.54-.66 2.09-.44.55-.99.77-1.76.77h-6.16v-2.75h5.39v.22ZM62.35 18.6299h4.73c.44 0 .66-.22.66-.55v-.22c0-.11 0-.11-.11-.22-.11-.22-.22-.33-.44-.33h-2.31c-.66 0-1.32-.22-1.76-.66-.55-.44-.77-.99-.77-1.54v-2.09c0-1.54.88-2.42 2.53-2.42h5.5v2.75h-4.62c-.55 0-.77.22-.77.55v.22c0 .33.33.55.88.55h2.31c.66 0 1.1.22 1.54.66.44.44.66.99.66 1.65v1.98c0 .55-.22 1.1-.77 1.65-.22.22-.44.44-.77.55-.22.11-.55.11-1.1.11h-5.5v-2.64h.11ZM74.8901 18.0799c0 .11.11.33.22.33.11.11.33.22.44.22h1.98c.44 0 .66-.22.66-.55v-.77c0-.44-.22-.66-.77-.66h-1.98c-.22 0-.44 0-.55.11-.11.11-.11.33-.11.55v.77h.11Zm3.52-4.18c0-.44-.22-.55-.66-.55h-5.28v-2.75h5.94c1.76 0 2.64.88 2.64 2.53v5.72c0 .77-.22 1.32-.66 1.76-.44.44-.99.77-1.76.77h-3.63c-1.76 0-2.64-.77-2.64-2.42v-2.2c0-1.65.88-2.53 2.53-2.53h3.52v-.33ZM83.14 9.05989c0-.77.33-1.32.77-1.76.55-.44 1.21-.66 1.98-.66h1.65v2.64h-.99c-.55 0-.88.33-.88.77001v.55h1.87v2.75h-1.87v8.03h-2.64V9.05989h.11ZM15.27 10.2699c.22-.11.44-.11.66-.22.33-1.87002 1.98-3.19002 3.96-3.19002s3.52 1.32 3.96 3.19002c.55.11 1.1.33 1.43.66v-.99002c-.33-2.75-2.64-4.84-5.39-4.84-2.86 0-5.28 2.31-5.39 5.17002v.77c.22-.22.44-.44.77-.55Z"></path>
  <path fill="var(--paymentMethodLogoColor, #3804FC)" d="M22.9699 10.5999h-6.38c-.33 0-.66.11-.99.22-.33.22-.55.33-.77.55-.44.44-.66 1.21-.66 2.09v5.06c0 .88.22 1.65.66 2.09.22.22.44.33.77.55.33.11.66.22.99.22h6.38c1.65 0 2.53-.88 2.53-2.75v-5.28c0-1.76-.88-2.64-2.53-2.75ZM95.1302 13.9001c0-.22-.11-.33-.22-.44-.11-.11-.22-.11-.44-.11h-1.87c-.22 0-.44.11-.55.22-.22.11-.33.33-.33.44v1.1l3.41-1.21Zm-3.19 3.85v.22c0 .22.11.44.22.55.11.11.22.22.33.22h5.39v2.75h-5.72c-.55 0-.99 0-1.21-.11-.33-.11-.55-.33-.88-.55-.33-.33-.44-.55-.55-.88-.11-.33-.11-.77-.11-1.21v-5.39c0-1.65.88-2.53 2.53-2.53h3.52c1.65 0 2.53.88 2.53 2.64v2.2l-6.05 2.09Z"></path>
  <title>PaySafeCard</title>
</svg>