<svg xmlns="http://www.w3.org/2000/svg" width="150" height="30" fill="none" viewBox="0 0 150 30" class="PaymentMethodLogo ">
  <path fill="var(--paymentMethodLogoColor, #20C25E)" fill-rule="evenodd" d="M63.303 29.943h-5.61V9.56c1.832.019 3.664 0 5.496-.057a57.423 57.423 0 01-.115-5.096c2.214-.019 4.428 0 6.642.058 4.073.6 6.801 2.833 8.187 6.698 1.056 4.425-.26 7.956-3.95 10.592a11.19 11.19 0 01-3.55 1.374 85.76 85.76 0 01-7.1.171v6.642zm0-20.153c2.023-.02 4.046 0 6.069.057 2.157.478 3.34 1.814 3.55 4.008-.195 2.141-1.34 3.477-3.435 4.008-2.061.057-4.122.076-6.184.057V9.79z" clip-rule="evenodd" opacity=".999"></path>
  <path fill="var(--paymentMethodLogoColor, #21C25E)" fill-rule="evenodd" d="M81.28-.057h10.764v10.764H81.28V-.057zm1.947 1.832h6.985V8.76h-6.985V1.775z" clip-rule="evenodd" opacity=".993"></path>
  <path fill="var(--paymentMethodLogoColor, #21C25E)" fill-rule="evenodd" d="M84.83 3.378h3.778v3.779H84.83V3.378z" clip-rule="evenodd"></path>
  <title>PicPay</title>
</svg>