<svg xmlns="http://www.w3.org/2000/svg" width="150" height="30" fill="none" viewBox="0 0 150 30" class="PaymentMethodLogo ">
  <path fill="var(--paymentMethodLogoColor, #0D1730)" d="M63.437 20.297V6.517h4.823c1.076 0 1.969.183 2.677.55.71.355 1.234.847 1.576 1.477.354.617.531 1.319.531 2.106a4.27 4.27 0 01-.512 2.068c-.328.617-.846 1.109-1.555 1.476-.709.368-1.615.551-2.717.551h-2.737v5.552h-2.086zm2.086-7.264h2.639c.984 0 1.686-.21 2.106-.63.433-.434.65-1.018.65-1.753 0-.76-.217-1.351-.65-1.771-.42-.434-1.122-.65-2.106-.65h-2.639v4.804zm8.915 7.264V6.122h2.086v14.175h-2.087zm8.706.237c-.958 0-1.811-.21-2.56-.63a4.64 4.64 0 01-1.732-1.792c-.42-.761-.63-1.647-.63-2.658 0-1.024.204-1.923.61-2.697a4.604 4.604 0 011.733-1.811c.748-.433 1.614-.65 2.599-.65.958 0 1.791.217 2.5.65.709.42 1.26.984 1.654 1.693.394.709.59 1.49.59 2.343 0 .13-.006.275-.02.433 0 .144-.006.308-.019.492h-7.6c.066.945.375 1.667.926 2.166a2.9 2.9 0 001.949.728c.59 0 1.083-.131 1.477-.394.406-.275.708-.643.905-1.102h2.087c-.263.919-.787 1.686-1.575 2.303-.774.617-1.739.926-2.894.926zm0-8.525c-.696 0-1.313.21-1.85.63-.539.407-.867 1.024-.985 1.85h5.513c-.04-.76-.309-1.365-.808-1.81-.498-.447-1.122-.67-1.87-.67zm10.788 8.525c-.945 0-1.778-.224-2.5-.67a4.651 4.651 0 01-1.693-1.83c-.407-.775-.61-1.654-.61-2.639 0-.984.203-1.857.61-2.618a4.511 4.511 0 011.693-1.812c.735-.446 1.575-.669 2.52-.669.775 0 1.45.151 2.028.453a3.33 3.33 0 011.378 1.28V6.122h2.087v14.175h-1.87l-.217-1.516c-.315.46-.748.867-1.3 1.221-.55.354-1.26.532-2.126.532zm.374-1.812c.893 0 1.621-.308 2.186-.925.577-.617.866-1.41.866-2.382 0-.985-.289-1.779-.866-2.382-.565-.617-1.293-.926-2.186-.926-.892 0-1.627.309-2.204.926-.578.603-.867 1.397-.867 2.382 0 .643.132 1.214.394 1.713.262.498.623.892 1.083 1.18a3.106 3.106 0 001.594.414zm11.176-1.417c-.512 0-.984-.06-1.417-.177l-.847.826c.144.092.322.171.532.237.21.065.505.124.886.177.38.052.899.105 1.555.157 1.299.119 2.238.434 2.815.945.578.5.866 1.169.866 2.009 0 .577-.157 1.122-.472 1.634-.302.525-.781.945-1.437 1.26-.643.328-1.47.492-2.481.492-1.365 0-2.474-.263-3.327-.788-.84-.512-1.26-1.293-1.26-2.343 0-.406.105-.813.315-1.22.223-.394.571-.768 1.043-1.122a5.383 5.383 0 01-.728-.374 6.349 6.349 0 01-.532-.434v-.472l1.694-1.732c-.762-.657-1.142-1.516-1.142-2.58 0-.643.151-1.227.452-1.752a3.367 3.367 0 011.359-1.28c.591-.314 1.299-.472 2.126-.472.551 0 1.063.079 1.536.236h3.642v1.378l-1.733.099c.315.538.473 1.135.473 1.791 0 .657-.158 1.247-.473 1.772-.301.525-.748.945-1.338 1.26-.578.315-1.28.473-2.107.473zm0-1.634c.604 0 1.09-.158 1.457-.473.381-.328.571-.787.571-1.378 0-.604-.19-1.063-.571-1.378-.367-.315-.853-.473-1.457-.473-.617 0-1.115.158-1.496.473-.368.315-.551.774-.551 1.378 0 .59.183 1.05.551 1.378.381.315.879.473 1.496.473zm-2.618 5.867c0 .564.249.984.748 1.26.499.288 1.122.433 1.87.433.722 0 1.306-.158 1.752-.473.447-.302.67-.709.67-1.22 0-.381-.151-.71-.453-.985-.302-.262-.873-.426-1.713-.492a17.3 17.3 0 01-1.673-.177c-.46.25-.775.518-.945.807-.171.289-.256.571-.256.847zM38.25 5.15a.42.42 0 01.696-.317l6.642 5.78a2.41 2.41 0 01.827 1.818V26.69c0 1.71-2.156 2.464-3.221 1.125l-4.682-5.886a1.205 1.205 0 01-.262-.75V5.15z"></path>
  <path fill="var(--paymentMethodLogoColor, #4836BF)" d="M42.621 3.154a.84.84 0 00-.419 1.464l4.44 3.864a4.843 4.843 0 011.663 3.653v6.901a.84.84 0 00.974.83l.846-.136a2.41 2.41 0 002.028-2.38V5.867a3.615 3.615 0 00-4.188-3.57l-5.344.858z"></path>
  <title>Pledg</title>
</svg>