<svg xmlns="http://www.w3.org/2000/svg" width="150" height="30" fill="none" viewBox="0 0 150 30" class="PaymentMethodLogo ">
  <path fill="var(--paymentMethodLogoColor, #0047BA)" d="M116.631 21.081l-1.573 4.083h-2.115l1.659-4.193-4.564-10.917h2.314l3.428 8.647 3.492-8.647h2.229l-4.87 11.027zM93.41 19.923a2.798 2.798 0 002.314-1.068c.787-1.068.897-2.64.897-3.434 0-1.964-.591-4.018-3.012-4.018-3.276 0-3.276 3.472-3.276 4.465 0 1.332.195 4.062 3.09 4.062m-5.061-8.087c0-.48-.024-.742-.066-1.793h2.06l.046 1.814c1.03-1.718 2.84-1.989 3.732-1.989 2.36 0 4.609 1.618 4.609 5.68 0 4.063-2.363 5.866-4.983 5.866-1.593 0-2.771-.687-3.362-1.639v5.437h-2.036V11.843zM59.014 17.455a2.32 2.32 0 00.175.982 1.189 1.189 0 001.202.687c.94 0 1.246-.632 1.246-1.116 0-.766-.632-.982-1.552-1.223l-2.229-.631c-.686-.176-2.665-.722-2.665-2.97a3.026 3.026 0 011.309-2.49c.962-.688 2.27-.938 3.887-.938 2.36 0 4.825.632 5 3.691H61.5a2.619 2.619 0 00-.151-1.067c-.175-.344-.48-.591-1.137-.591-.656 0-1.222.285-1.222.961 0 .677.456.873 1.112 1.03l2.926.808c1.03.285 2.576.872 2.576 3.015 0 3.712-4.303 3.712-5.265 3.712-2.228 0-5.436-.344-5.391-3.863l4.066.003zM106.013 15.62c-.831 0-3.952 0-3.952 2.229 0 .686.436 1.899 2.27 1.899a2.628 2.628 0 002.335-1.182c.46-.741.481-1.353.525-2.88a9.039 9.039 0 00-1.178-.066zm1.419 5.391a5.858 5.858 0 01-.182-1.651 3.55 3.55 0 01-3.386 1.988c-2.511 0-3.864-1.418-3.864-3.232a3.607 3.607 0 011.92-3.21c1.181-.656 2.926-.722 3.798-.722.525 0 .852.021 1.487.066 0-1.353 0-1.944-.395-2.425-.415-.546-1.308-.72-1.899-.72-2.06 0-2.184 1.417-2.205 1.857h-2.06a3.49 3.49 0 01.766-2.06c.831-.917 2.38-1.178 3.537-1.178 1.593 0 3.297.501 3.887 1.617.274.517.402 1.099.371 1.683l-.086 5.24c.009.918.067 1.835.175 2.747h-1.864zM46.291 18.11a1.717 1.717 0 001.593.872c1.793 0 2.14-1.944 2.14-3.472 0-1.899-.46-3.492-2.095-3.492-1.813 0-2.163 1.857-2.163 3.492 0 .721.065 1.79.525 2.596m1.638-8.427c3.558 0 6.332 1.793 6.332 5.676 0 1.594-.46 3.211-1.593 4.345-.917.896-2.27 1.572-4.52 1.572-2.424 0-3.996-.59-5.065-1.614-1.267-1.202-1.572-2.84-1.572-4.172 0-3.362 2.06-5.807 6.418-5.807zM82.925 14.137c-.04-.631-.175-2.293-1.964-2.293s-1.94 1.768-1.985 2.293h3.95zm-3.993 2.23c0 .59 0 2.664 2.094 2.664 1.093 0 1.769-.567 1.879-1.593h3.822c-.306 2.747-2.881 3.822-5.721 3.822-3.822 0-5.873-1.923-5.873-5.546s1.793-6.051 5.839-6.051c3.056 0 4.464 1.246 5.22 2.795.48.938.61 1.989.61 3.908h-7.87zM74.626 10.09v2.62h-2.64v3.798c.02 1.353.02 1.964 1.593 1.964.344.006.689-.016 1.03-.065v2.579c-.881.143-1.773.209-2.665.195-3.276 0-3.929-1.092-3.929-3.21V12.72h-2.06v-2.63H68.1V8.371L72.054 6.8v3.29h2.572zM32.139 12.324h1.944c1.068 0 2.795 0 2.795-2.119 0-1.923-1.549-2.03-2.816-2.03h-1.923v4.15zM27.75 5.25H35c1.222 0 2.819 0 4.12.807 1.302.807 2.229 2.229 2.229 4.279 0 2.775-1.769 3.973-2.38 4.303-1.222.687-3.121.687-3.973.687l-2.84.02v5.677H27.75V5.25z"></path>
  <title>Postepay</title>
</svg>