<svg xmlns="http://www.w3.org/2000/svg" width="150" height="30" fill="none" viewBox="0 0 150 30" class="PaymentMethodLogo ">
  <mask id="a-payment-method-logo-PostFinance" style="mask-type:luminance" width="78" height="22" x="36" y="4" maskUnits="userSpaceOnUse">
    <path fill="var(--paymentMethodLogoColor, #fff)" d="M36 26h77.878V4H36v22z"></path>
  </mask>
  <g mask="url(#a-payment-method-logo-PostFinance)">
    <path fill="var(--paymentMethodLogoColor, #FCD205)" d="M36 26h77.878V3.988H36V26z"></path>
    <path fill="var(--paymentMethodLogoColor, #fff)" d="M100.674 20.968l.762-3.604H39.324l-.761 3.604h62.111z"></path>
    <path fill="var(--paymentMethodLogoColor, #ED1C24)" d="M108.156 12.453s.832-3.818.844-3.854h-5.293c0 .024-1.094 5.067-1.094 5.09h1.356c.012 0 .833-3.806.833-3.806h2.568s-.808 3.818-.832 3.842h3.913l-.511 2.355h-3.89c0 .024-.785 3.592-.785 3.592h-2.937c0 .012-.262 1.284-.274 1.296h4.329c0-.012.774-3.604.774-3.604h3.889c0-.012 1.023-4.888 1.023-4.911h-3.913z"></path>
    <path fill="var(--paymentMethodLogoColor, #231F20)" d="M98.579 13.583c.558 0 .94.38.94 1.01 0 .107-.013.203-.024.31H97.08c.25-.797.785-1.32 1.499-1.32zm1.2 4.734l.31-1.416c-.523.178-1.035.32-1.689.32-.761 0-1.427-.26-1.463-1.177h3.925a4.68 4.68 0 00.226-1.355c0-1.309-.761-2.38-2.39-2.38-2.118 0-3.402 1.738-3.402 3.652 0 1.641 1.094 2.605 2.795 2.605.69 0 1.237-.107 1.689-.25zm-6.457-1.202c-.774 0-1.297-.333-1.297-1.296 0-1.13.713-2.07 1.844-2.07.357 0 .761.107 1.165.262l.286-1.356a4.717 4.717 0 00-1.558-.286c-1.868 0-3.462 1.392-3.462 3.533 0 1.76 1.083 2.592 2.64 2.592.524 0 .964-.095 1.286-.225l.309-1.392a3.44 3.44 0 01-1.213.238zm-8.219 1.273l.654-3.01c.262-1.213.857-1.63 1.475-1.63.797 0 .892.596.737 1.274l-.713 3.365h1.7l.75-3.449c.368-1.724-.428-2.629-1.677-2.629-.69 0-1.356.274-1.927.88l.154-.7h-1.581l-1.273 5.898h1.701zm-6.113-1.701c0-.595.523-.928 1.391-.928a6.9 6.9 0 01.868.06l-.071.333c-.203.7-.773 1.177-1.45 1.177-.489 0-.738-.238-.738-.642zm1.641-4.342c-.785 0-1.582.179-1.843.262l-.286 1.368c.38-.107 1.13-.31 1.796-.31.892 0 1.213.274 1.213.738 0 .083 0 .179-.023.274l-.025.119a12.078 12.078 0 00-1.023-.083c-1.688 0-3.044.653-3.044 2.2 0 1.01.785 1.617 1.808 1.617.725 0 1.344-.285 1.748-.76l-.13.617h1.51l.737-3.377c.06-.25.083-.511.083-.761 0-1.012-.558-1.904-2.52-1.904zm-8.242 6.042l.654-3.009c.262-1.213.856-1.63 1.475-1.63.797 0 .892.596.738 1.274l-.715 3.365h1.701l.75-3.449c.368-1.724-.428-2.629-1.677-2.629-.69 0-1.357.274-1.927.88l.154-.7H71.96l-1.272 5.898h1.7zm-3.045-7.528a.868.868 0 00.88.951c.583 0 1-.416 1.034-.951a.868.868 0 00-.88-.952c-.582 0-.998.417-1.034.952zm-.238 1.63l-1.273 5.898h1.69l1.272-5.898h-1.69zM64.3 18.387l.666-3.08h2.57l.31-1.51h-2.558l.393-1.892h2.7l.332-1.51h-4.46l-1.688 7.992H64.3zm-1.676-4.602l.273-1.296h-1.819l.356-1.642-1.772.392-1.106 5.043c-.309 1.428.476 2.212 1.903 2.212.298 0 .797-.059 1.154-.177l.285-1.297c-.285.071-.642.143-.95.143-.49 0-.834-.167-.715-.762l.56-2.616h1.83zm-6.447 2.866c0 .476-.582.559-1.07.559-.619 0-1.308-.166-1.676-.286l-.286 1.333c.535.13 1.213.237 1.855.237 1.522 0 2.76-.57 2.76-1.997 0-1.844-2.213-1.523-2.213-2.343 0-.37.357-.5.916-.5.535 0 1.285.214 1.534.285l.286-1.343a6.456 6.456 0 00-1.666-.227c-1.652 0-2.651.738-2.651 1.963 0 1.796 2.211 1.498 2.211 2.319zm-6.398 1.915c1.867 0 3.128-1.356 3.413-3.128.298-1.772-.69-3.129-2.557-3.129s-3.128 1.357-3.413 3.129c-.298 1.772.69 3.128 2.557 3.128zm.155-1.368c-.678 0-1.214-.535-.964-1.76s.844-1.76 1.522-1.76 1.214.547.952 1.76c-.25 1.213-.833 1.76-1.51 1.76zM42.76 15.95h.75c2.39 0 3.723-1.177 3.723-3.14 0-1.463-1.036-2.414-2.808-2.414h-2.211l-1.69 7.992h1.713l.523-2.438zm.298-1.463l.559-2.628h.713c.785 0 1.166.321 1.166 1.07 0 .964-.606 1.558-1.724 1.558h-.714z"></path>
  </g>
  <title>PostFinance</title>
</svg>