<svg xmlns="http://www.w3.org/2000/svg" width="150" height="30" fill="none" viewBox="0 0 150 30" class="PaymentMethodLogo ">
  <path fill="var(--paymentMethodLogoColor, #21262E)" d="M39 6.918a5.891 5.891 0 015.891-5.891H59.62a5.892 5.892 0 015.891 5.891v14.729a5.892 5.892 0 01-5.891 5.891H44.89A5.891 5.891 0 0139 21.647V6.918z"></path>
  <path fill="var(--paymentMethodLogoColor, #fff)" d="M51.783 8.583c-.256 1.716-.46 3.163-.829 5.414.996-.02 3.257.357 3.754-2.72.412-2.56-1.424-2.796-2.925-2.694z"></path>
  <path fill="var(--paymentMethodLogoColor, #fff)" d="M60.409 20.963c.387.822-.003 1.861-.812 2.28a6.79 6.79 0 01-1.523.59 13.36 13.36 0 01-2.664.33c-1.436 0-2.874-.784-3.495-1.738-.16.33-.74.99-1.753 1.302-.64.197-1.414.435-3.026.433-1.445 0-2.268-.625-2.705-1.15-.693-.833-.795-1.89-.66-2.604l.008-.034c.544-2.608 1.29-7.349 1.634-9.724l.003-.024c.094-.658.19-1.317.246-1.98.029-.335.047-.67.051-1.005.004-.317-.028-.634-.024-.951.003-.299.053-.602.2-.866a2.04 2.04 0 011.14-.91c.506-.16 1.037-.227 1.564-.284a43.81 43.81 0 011.62-.155 28.824 28.824 0 011.982-.07c1.133 0 2.273.019 3.388.237 1.137.223 2.285.65 3.182 1.399a6.011 6.011 0 011.468 1.867c.322.624.453 1.28.53 1.782a7.098 7.098 0 01-.107 2.704 5.789 5.789 0 01-.823 1.823c-.427.633-.975 1.206-1.674 1.753.426 1.177 1.534 3.476 2.25 4.995zM47.695 6.807c.026.437.03.877.011 1.315-.02.448-.06.894-.113 1.338-.05.444-.113.885-.176 1.327l-.02.144c-.2 1.38-.408 2.76-.628 4.136-.23 1.446-.489 2.886-.747 4.327-.12.671-.39 1.532-.022 2.173.33.572 1.17.642 1.757.584 2.138-.208 2.477-.66 2.477-.66-.426-.45-.056-2.502.373-5.26h1.519l1.59 4.583s.468 1.42 1.771 1.352c1.669-.088 2.896-.452 3.072-.653-.514-.274-1.982-3.775-2.783-6.347.388-.224.763-.47 1.117-.744.485-.376.933-.81 1.277-1.319.247-.366.435-.77.543-1.197a5.098 5.098 0 00.069-1.916c-.06-.388-.149-.82-.33-1.172-.339-.655-.818-1.227-1.47-1.593-1.102-.616-2.37-.734-3.608-.8a23.944 23.944 0 00-4.023.127c-.148.017-1.662.144-1.656.255z"></path>
  <path fill="var(--paymentMethodLogoColor, #21262E)" d="M73.8 23.62v-6.735h4.533c3.738 0 6.124-2.412 6.124-5.965 0-3.446-2.333-5.858-6.124-5.858h-6.84v18.557H73.8zm0-16.464h4.242c2.492 0 4.03 1.379 4.03 3.765 0 2.492-1.459 3.844-4.03 3.844H73.8v-7.61zm17.123 16.702c1.909 0 3.42-.769 4.242-2.147h.106l.159 1.908h1.882V14.5c0-2.571-1.83-4.665-5.302-4.665-2.97 0-5.143 1.723-5.143 4.32h2.147c.027-1.298 1.008-2.412 2.996-2.412 2.2 0 3.128 1.3 3.128 2.81v1.353a11.797 11.797 0 00-3.34-.478c-3.977 0-5.594 1.962-5.594 4.242 0 2.36 1.776 4.189 4.719 4.189zm.398-1.856c-1.962 0-2.864-1.007-2.864-2.36 0-1.59 1.14-2.438 3.34-2.438 1.194 0 2.228.132 3.341.477v.69c0 1.96-1.51 3.631-3.817 3.631zm13.124 7.688l7.503-19.353v-.265h-2.333l-3.977 10.631h-.106l-4.109-10.63h-2.386v.264l5.435 13.123.026.053-2.306 5.912v.266h2.253z"></path>
  <title>RevolutPay</title>
</svg>