<svg xmlns="http://www.w3.org/2000/svg" width="150" height="30" fill="none" viewBox="0 0 150 30" class="PaymentMethodLogo ">
  <path fill="var(--paymentMethodLogoColor, #C83333)" fill-rule="evenodd" d="M93.801 8.059h2.036l3.657 10.691 3.459-10.691H105S100.208 22.564 100.068 23c-.457 1.424-1.576 2.502-3.145 2.502-1.227 0-1.953-.503-2.485-.986.134-.21.807-1.244.916-1.418.394.323.768.585 1.506.569 1.06-.039 1.265-.99 1.712-2.183l-4.77-13.426zm-1.787 13.75h-1.738l-.32-1.503c-.974 1.162-2.176 1.86-3.885 1.86-3.828 0-6.076-3.305-6.076-7.166 0-4.716 2.832-7.266 6.076-7.266 2.005-.001 3.01.704 3.92 1.623.085-.387.28-1.298.28-1.298h1.743v13.75zm-5.9-12.24c2.483 0 3.994 2.456 3.994 5.431s-1.638 5.332-3.992 5.332c-2.353 0-4.015-2.357-4.015-5.332 0-2.975 1.531-5.431 4.014-5.431zM70.162 21.82h-1.97V4.638h5.75c3.161 0 5.23 2.255 5.23 5.252-.055 3.47-2.766 5.072-5.123 5.072H70.16v6.858zm3.662-8.673c1.602 0 3.258-1.164 3.258-3.318 0-1.86-1.263-3.344-3.258-3.344h-3.651l-.011 6.662h3.662zM45 23.72h21.195L48.004 26.25 45 23.721zm6.44-1.9h-3.413L48.004 3.75h5.633a6.248 6.248 0 016.283 6.273c0 3.102-2.223 4.766-2.619 5.03.265.345 5.1 6.76 5.106 6.767h-4.31l-4.205-5.614h-2.451v5.614zm2.314-9.053c1.174 0 2.742-.932 2.742-2.802 0-1.763-1.45-2.803-2.742-2.803h-2.297v5.605h2.297z" clip-rule="evenodd"></path>
  <title>Rakuten Pay</title>
<svg xmlns="http://www.w3.org/2000/svg" width="150" height="30" fill="none" viewBox="0 0 150 30" class="PaymentMethodLogo ">
  <path fill="var(--paymentMethodLogoColor, #C83333)" fill-rule="evenodd" d="M93.801 8.059h2.036l3.657 10.691 3.459-10.691H105S100.208 22.564 100.068 23c-.457 1.424-1.576 2.502-3.145 2.502-1.227 0-1.953-.503-2.485-.986.134-.21.807-1.244.916-1.418.394.323.768.585 1.506.569 1.06-.039 1.265-.99 1.712-2.183l-4.77-13.426zm-1.787 13.75h-1.738l-.32-1.503c-.974 1.162-2.176 1.86-3.885 1.86-3.828 0-6.076-3.305-6.076-7.166 0-4.716 2.832-7.266 6.076-7.266 2.005-.001 3.01.704 3.92 1.623.085-.387.28-1.298.28-1.298h1.743v13.75zm-5.9-12.24c2.483 0 3.994 2.456 3.994 5.431s-1.638 5.332-3.992 5.332c-2.353 0-4.015-2.357-4.015-5.332 0-2.975 1.531-5.431 4.014-5.431zM70.162 21.82h-1.97V4.638h5.75c3.161 0 5.23 2.255 5.23 5.252-.055 3.47-2.766 5.072-5.123 5.072H70.16v6.858zm3.662-8.673c1.602 0 3.258-1.164 3.258-3.318 0-1.86-1.263-3.344-3.258-3.344h-3.651l-.011 6.662h3.662zM45 23.72h21.195L48.004 26.25 45 23.721zm6.44-1.9h-3.413L48.004 3.75h5.633a6.248 6.248 0 016.283 6.273c0 3.102-2.223 4.766-2.619 5.03.265.345 5.1 6.76 5.106 6.767h-4.31l-4.205-5.614h-2.451v5.614zm2.314-9.053c1.174 0 2.742-.932 2.742-2.802 0-1.763-1.45-2.803-2.742-2.803h-2.297v5.605h2.297z" clip-rule="evenodd"></path>
  <title>Rakuten Pay</title>
</svg></svg>