<svg xmlns="http://www.w3.org/2000/svg" width="150" height="30" fill="none" viewBox="0 0 150 30" class="PaymentMethodLogo ">
  <path fill="var(--paymentMethodLogoColor, #000)" d="M75.08 24c-.325-.013-.599-.112-.822-.33a3.56 3.56 0 01-.233-.26c-3.024-3.538-6.047-7.076-9.068-10.617-.076-.088-.155-.175-.221-.269a1.187 1.187 0 01.021-1.447c.074-.09.151-.177.232-.26l4.041-4.27c.081-.084.159-.17.245-.248.433-.4 1.093-.4 1.527.004.111.1.21.212.31.318l2.844 3.001c.103.11.205.218.311.319.427.407 1.08.425 1.527.042.112-.1.216-.206.315-.318l2.775-2.931c.103-.109.203-.221.311-.319a1.124 1.124 0 011.565-.003c.084.077.164.163.243.248 1.336 1.41 2.672 2.82 4.007 4.233.057.06.115.12.169.182a1.2 1.2 0 01.06 1.565 45782.3 45782.3 0 01-9.093 10.664c-.098.114-.193.23-.298.337a1.2 1.2 0 01-.771.357l.003.002z"></path>
  <title>Scalapay</title>
</svg>