<svg xmlns="http://www.w3.org/2000/svg" width="150" height="30" fill="none" viewBox="0 0 150 30" class="PaymentMethodLogo ">
  <path fill="var(--paymentMethodLogoColor, #161070)" fill-rule="evenodd" d="M48 17.945l5.046-.321c.11.831.332 1.464.667 1.9.547.704 1.327 1.056 2.342 1.056.757 0 1.338-.178 1.744-.534.414-.364.62-.784.62-1.258 0-.452-.194-.855-.585-1.212-.39-.356-1.295-.692-2.716-1.009-2.326-.53-3.984-1.235-4.976-2.113-.999-.879-1.498-1.999-1.498-3.36 0-.895.254-1.738.76-2.53.516-.799 1.285-1.424 2.307-1.875 1.03-.46 2.44-.689 4.227-.689 2.193 0 3.863.416 5.01 1.247 1.156.823 1.843 2.137 2.061 3.942l-4.999.296c-.133-.783-.414-1.353-.843-1.71-.421-.355-1.007-.534-1.756-.534-.617 0-1.081.135-1.393.404-.313.261-.469.582-.469.962 0 .277.13.526.387.748.25.23.843.443 1.78.641 2.317.507 3.976 1.021 4.975 1.544 1.007.514 1.737 1.155 2.19 1.923.46.768.69 1.627.69 2.577a5.574 5.574 0 01-.913 3.087c-.609.942-1.46 1.658-2.552 2.149-1.093.483-2.47.724-4.133.724-2.92 0-4.94-.57-6.065-1.71-1.124-1.14-1.76-2.588-1.908-4.345zM65.018 6.297h8.816c1.92 0 3.356.463 4.308 1.389.96.926 1.44 2.244 1.44 3.954 0 1.757-.523 3.13-1.569 4.12-1.038.99-2.626 1.484-4.765 1.484h-2.903v6.46h-5.327V6.296zm5.327 7.42h1.3c1.022 0 1.74-.177 2.154-.534a1.77 1.77 0 00.62-1.389c0-.546-.18-1.009-.538-1.389-.36-.38-1.035-.57-2.026-.57h-1.51v3.883zm32.455-7.42h-5.315v6.066h2.008v-3.62l3.307 4.818V6.297zm0 8.349l-3.307 4.817v-3.62h-2.008v7.86h5.315v-9.057z" clip-rule="evenodd"></path>
  <path fill="var(--paymentMethodLogoColor, #E2911F)" d="M81.146 6.297h14.213v3.458H86.46v2.626h8.254v3.507H86.46v3.873h9.155v3.942h-14.47V6.297z"></path>
  <title>SPEI</title>
</svg>