<svg xmlns="http://www.w3.org/2000/svg" width="150" height="30" fill="none" viewBox="0 0 150 30" class="PaymentMethodLogo ">
  <path fill="var(--paymentMethodLogoColor, #4A4A49)" d="M107.44 10.118a1.852 1.852 0 01.519-1.296c.159-.165.346-.295.56-.39.215-.095.445-.143.691-.143a1.749 1.749 0 011.269.533 1.84 1.84 0 01.521 1.296 1.84 1.84 0 01-.521 1.296 1.763 1.763 0 01-1.96.391 1.77 1.77 0 01-.56-.39 1.852 1.852 0 01-.519-1.297zm.364 0c0 .21.036.406.107.587.071.18.171.338.297.472a1.377 1.377 0 001.565.315 1.421 1.421 0 00.753-.787c.074-.18.11-.375.11-.587a1.532 1.532 0 00-.411-1.057 1.402 1.402 0 00-1.571-.315c-.171.076-.32.182-.446.315s-.226.29-.297.47a1.59 1.59 0 00-.107.587zm.798-.787c0-.11.055-.165.164-.165h.564c.179 0 .323.051.428.155.106.104.16.244.16.422a.54.54 0 01-.224.445.394.394 0 01-.12.055v.01s.009.01.015.02c.009.01.015.02.02.033a.274.274 0 00.03.053l.259.506c.03.057.036.103.02.138-.016.035-.054.053-.11.053h-.06c-.093 0-.158-.04-.194-.12l-.289-.613h-.309v.572c0 .107-.051.16-.155.16h-.045c-.103 0-.154-.053-.154-.16V9.331zm.653.732a.294.294 0 00.224-.085.326.326 0 00.08-.235c0-.1-.026-.173-.08-.225a.293.293 0 00-.219-.08h-.304v.627h.299v-.002zm-14.534 1.199c.563 0 1.042.072 1.434.216.393.144.7.278.92.4.189.1.298.235.332.401a.847.847 0 01-.084.533l-.165.3c-.1.2-.227.317-.382.35-.154.035-.336.006-.547-.083a7.815 7.815 0 00-.68-.275 2.747 2.747 0 00-.928-.142c-.354 0-.647.073-.845.217-.2.144-.298.35-.298.617 0 .232.102.423.307.566.204.144.465.273.779.383.314.11.652.23 1.01.358.355.125.694.29 1.011.492.312.196.578.458.78.767.204.311.306.706.306 1.184 0 .377-.075.724-.224 1.04a2.38 2.38 0 01-.647.825 3.174 3.174 0 01-1.02.55c-.397.135-.84.2-1.326.2-.686 0-1.263-.1-1.733-.3-.47-.2-.831-.389-1.085-.566-.188-.112-.293-.25-.316-.417-.022-.166.028-.344.15-.533l.2-.3c.121-.178.256-.278.406-.3.15-.023.329.022.538.133.2.112.456.237.77.376.315.139.689.209 1.12.209.365 0 .652-.078.862-.233a.745.745 0 00.316-.633.644.644 0 00-.307-.558 3.657 3.657 0 00-.779-.383l-1.01-.375a5.36 5.36 0 01-1.012-.501 2.565 2.565 0 01-.779-.767c-.204-.312-.306-.71-.306-1.2 0-.412.086-.778.256-1.1.167-.317.405-.591.697-.8a3.259 3.259 0 011.029-.482 4.565 4.565 0 011.251-.167l-.001-.002zm-24.645 0c.564 0 1.042.072 1.435.216.393.144.7.278.92.4.188.1.298.235.332.401a.847.847 0 01-.084.533l-.166.3c-.1.2-.227.317-.381.35-.155.035-.337.006-.547-.083a7.806 7.806 0 00-.68-.275 2.784 2.784 0 00-.928-.142c-.354 0-.647.073-.846.217-.199.144-.297.35-.297.617 0 .232.102.423.306.566.205.144.465.273.78.383l1.01.358c.36.128.697.292 1.011.492.312.196.577.458.78.767.204.311.306.706.306 1.184 0 .377-.075.724-.225 1.04-.15.317-.365.592-.647.825a3.174 3.174 0 01-1.02.55c-.397.135-.84.2-1.325.2-.686 0-1.263-.1-1.733-.3-.47-.2-.831-.389-1.086-.566-.188-.112-.293-.25-.315-.417-.023-.166.027-.344.15-.533l.199-.3c.122-.178.257-.278.406-.3.15-.023.33.022.539.133.2.112.456.237.77.376s.688.209 1.12.209c.365 0 .651-.078.862-.233a.748.748 0 00.315-.633.644.644 0 00-.306-.558 3.654 3.654 0 00-.78-.383l-1.01-.375a5.247 5.247 0 01-1.011-.501 2.563 2.563 0 01-.78-.767c-.204-.312-.306-.71-.306-1.2 0-.412.086-.778.257-1.1.167-.317.405-.591.697-.8a3.259 3.259 0 011.028-.482c.393-.111.81-.167 1.252-.167l-.002-.002zm30.232-3.133c.463 0 .696.234.696.7v3.433c0 .111-.002.209-.008.291a2.163 2.163 0 01-.025.225c-.01.067-.017.133-.017.2h.034c.1-.2.241-.402.423-.607a3.31 3.31 0 011.492-.959c.315-.1.654-.15 1.019-.15.94 0 1.667.255 2.18.767.514.512.771 1.332.771 2.466v4.766c0 .467-.232.7-.697.7h-.713c-.464 0-.697-.232-.697-.7v-4.333c0-.522-.088-.942-.265-1.259-.177-.316-.531-.475-1.061-.475-.365 0-.699.072-1.003.216a2.239 2.239 0 00-.771.592 2.73 2.73 0 00-.488.892 3.476 3.476 0 00-.175 1.116v3.25c0 .466-.232.7-.697.7h-.713c-.463 0-.695-.232-.695-.7V8.828c0-.466.232-.7.697-.7h.713zm-11.016 3.333c.454 0 .68.234.68.7v7.099c0 .467-.227.7-.68.7h-.729c-.454 0-.68-.232-.68-.7v-7.1c0-.466.228-.7.68-.7h.73v.001zm-14.068 0c.42 0 .668.205.746.617l1.36 4.966.057.333c.016.1.036.194.059.283.022.1.038.194.05.282h.033c.011-.088.028-.182.05-.282.022-.09.041-.183.057-.283.017-.1.041-.212.075-.333l1.426-4.966c.077-.4.332-.6.763-.6h.63c.408 0 .662.2.762.6l1.409 4.966c.034.123.058.233.075.333.016.1.036.194.057.283.022.1.039.194.05.282h.034c.01-.088.027-.182.05-.282.022-.09.04-.183.057-.283.016-.1.04-.212.074-.333l1.343-4.966c.1-.41.354-.617.763-.617h.763c.254 0 .43.073.53.217.1.143.117.332.05.566l-2.17 7.133c-.112.39-.371.584-.78.584h-1.11c-.42 0-.68-.2-.78-.6l-1.276-4.249a3.97 3.97 0 01-.084-.333c-.02-.1-.042-.2-.066-.3a2.996 2.996 0 01-.05-.283h-.033a7.51 7.51 0 00-.066.283 5.166 5.166 0 00-.066.3c-.023.113-.05.224-.084.333l-1.276 4.25c-.1.4-.354.599-.763.599h-1.144c-.398 0-.652-.194-.763-.584l-2.189-7.133c-.066-.232-.047-.421.059-.566.104-.144.279-.217.522-.217h.796z"></path>
  <path fill="var(--paymentMethodLogoColor, url(#paint0_linear_19233_4190-payment-method-logo-Swish))" fill-rule="evenodd" d="M45.234 24.929a10.939 10.939 0 0013.119-2.86c3.89-4.652 3.287-11.59-1.35-15.494l-3.083 3.686c3.623 3.05 4.095 8.47 1.055 12.105-2.424 2.9-6.415 3.867-9.741 2.562" clip-rule="evenodd"></path>
  <path fill="var(--paymentMethodLogoColor, url(#paint1_linear_19233_4190-payment-method-logo-Swish))" fill-rule="evenodd" d="M45.234 24.929a10.939 10.939 0 0013.119-2.86c.395-.472.75-.976 1.062-1.51a9.639 9.639 0 00-5.493-10.298c3.622 3.05 4.093 8.47 1.054 12.105-2.423 2.9-6.414 3.867-9.741 2.562" clip-rule="evenodd"></path>
  <path fill="var(--paymentMethodLogoColor, url(#paint2_linear_19233_4190-payment-method-logo-Swish))" fill-rule="evenodd" d="M54.684 5.071a10.937 10.937 0 00-13.118 2.86c-3.89 4.652-3.287 11.59 1.35 15.494l3.082-3.686c-3.622-3.05-4.094-8.47-1.054-12.105 2.422-2.9 6.413-3.868 9.74-2.563z" clip-rule="evenodd"></path>
  <path fill="var(--paymentMethodLogoColor, url(#paint3_linear_19233_4190-payment-method-logo-Swish))" fill-rule="evenodd" d="M54.684 5.071a10.937 10.937 0 00-13.119 2.86c-.395.472-.75.976-1.062 1.51a9.638 9.638 0 005.495 10.298c-3.621-3.05-4.094-8.47-1.055-12.105 2.422-2.9 6.414-3.868 9.74-2.563z" clip-rule="evenodd"></path>
  <defs>
    <linearGradient id="paint0_linear_19233_4190-payment-method-logo-Swish" x1="53.49" x2="48.789" y1="20.197" y2="10.8" gradientUnits="userSpaceOnUse">
      <stop stop-color="#EF2131"></stop>
      <stop offset="1" stop-color="#FECF2C"></stop>
    </linearGradient>
    <linearGradient id="paint1_linear_19233_4190-payment-method-logo-Swish" x1="57.25" x2="49.131" y1="12.336" y2="26.492" gradientUnits="userSpaceOnUse">
      <stop stop-color="#FBC52C"></stop>
      <stop offset=".26" stop-color="#F87130"></stop>
      <stop offset=".56" stop-color="#EF52E2"></stop>
      <stop offset="1" stop-color="#661EEC"></stop>
    </linearGradient>
    <linearGradient id="paint2_linear_19233_4190-payment-method-logo-Swish" x1="46.472" x2="50.954" y1="9.694" y2="18.741" gradientUnits="userSpaceOnUse">
      <stop stop-color="#78F6D8"></stop>
      <stop offset=".27" stop-color="#77D1F6"></stop>
      <stop offset=".55" stop-color="#70A4F3"></stop>
      <stop offset="1" stop-color="#661EEC"></stop>
    </linearGradient>
    <linearGradient id="paint3_linear_19233_4190-payment-method-logo-Swish" x1="42.67" x2="50.789" y1="17.6" y2="3.443" gradientUnits="userSpaceOnUse">
      <stop stop-color="#536EED"></stop>
      <stop offset=".25" stop-color="#54C3EC"></stop>
      <stop offset=".56" stop-color="#64D769"></stop>
      <stop offset="1" stop-color="#FECF2C"></stop>
    </linearGradient>
  </defs>
  <title>Swish</title>
</svg>