<svg xmlns="http://www.w3.org/2000/svg" width="150" height="30" fill="none" viewBox="0 0 150 30" class="PaymentMethodLogo ">
  <path fill="var(--paymentMethodLogoColor, #0047BA)" d="M92.817 28c1.07 0 1.947-.885 1.947-1.963V3.957A1.961 1.961 0 0092.817 2H57.001c-1.07 0-1.946.885-1.946 1.958v22.08c0 1.077.877 1.962 1.946 1.962h35.816z"></path>
  <path fill="var(--paymentMethodLogoColor, #fff)" d="M70.622 15.484h-2.05c-.603 0-1.381.43-1.605 1l.203-1.094h-2.507l-1.106 6.292h2.507l.696-3.984h2.699l-.498 2.858c-.15.885.44 1.1.737 1.1h1.313l.857-4.895c-.084-.701-.55-1.277-1.246-1.277zM62.861 15.39l-.472 2.701 1.905-2.701h-1.432z"></path>
  <path fill="var(--paymentMethodLogoColor, #FFCD00)" d="M65.836 5.533h-8.388l-.364 2.084h2.928l-1.173 6.72h2.528l1.173-6.72h2.932l.364-2.084z"></path>
  <path fill="var(--paymentMethodLogoColor, #FFCD00)" d="M67.57 12.275l.368-2.104H65.69l-.368 2.104h2.247zm-3.54 2.063c-.696 0-1.163-.576-1.044-1.278l.649-3.68c.12-.701.789-1.272 1.484-1.272h4.111c.696 0 1.163.571 1.038 1.272l-.643 3.68c-.125.702-.794 1.277-1.49 1.277H64.03zM80.578 12.275l.368-2.104h3.255l.363-2.063h-4.189c-.695 0-1.365.571-1.49 1.272l-.643 3.68c-.12.702.348 1.277 1.043 1.277h4.075l.358-2.062h-3.14zM75.46 12.275h-2.757l.727-4.167h-2.196l-.867 4.952c-.124.702.348 1.277 1.044 1.277h2.138c.696 0 1.262-.418 1.713-.957 0 0 .244.722.597.884.353.163 1.428.126 1.428.126l1.1-6.276h-2.196l-.732 4.161zM91.291 8.14h-2.05c-.602 0-1.184.43-1.412 1l.592-3.381h-2.31l-1.5 8.579h2.315l.695-3.983h2.507s-.342 1.973-.498 2.857c-.156.88.441 1.095.732 1.095h1.116l.856-4.895c.12-.701-.347-1.272-1.043-1.272zM83.059 23.776c-.935 0-1.568-.775-1.402-1.717l.867-4.947c.16-.942 1.064-1.717 2.004-1.717h5.232c.934 0 1.567.775 1.401 1.717l-.861 4.947c-.166.942-1.064 1.716-2.004 1.716h-5.237zm4.874-2.314l.659-3.753H84.88l-.659 3.753h3.712zM77.982 21.462h-3.711l.659-3.753h6.016l.395-2.314h-6.77c-.933 0-1.837.775-1.998 1.717l-.866 4.947c-.161.942.467 1.716 1.401 1.716h5.232c.935 0 1.838-.774 1.999-1.716l.53-3.036h-2.466l-.42 2.439z"></path>
  <title>TouchNGo</title>
</svg>