<svg xmlns="http://www.w3.org/2000/svg" width="150" height="30" fill="none" viewBox="0 0 150 30" class="PaymentMethodLogo ">
  <path fill="var(--paymentMethodLogoColor, #000)" d="M64.98 21.435l9.533 5.318a1.275 1.275 0 001.5 0l10.118-5.685c.352-.225.6-.405.6-.81a.833.833 0 00-.488-.705l-2.715-1.778 2.588-1.462a1.5 1.5 0 00.87-1.238V11.13a1.455 1.455 0 00-.885-1.5l-9.93-5.587a1.613 1.613 0 00-1.853 0l-9.937 5.662a1.072 1.072 0 00-.585.945c0 .48.51.848.585.908l2.587 1.5-2.737 1.627a.975.975 0 00-.458.75v3.81a2.055 2.055 0 001.208 2.19zm19.966-1.11l-9.683 5.318-9.352-5.168 2.925-1.642 6.075 3.405a.75.75 0 00.675 0l6.562-3.75 2.798 1.837zm.81-5.662l-2.61-1.568 2.61-1.5v3.068zm-9.75-9.158l8.88 5.108-2.925 1.755-6-3.57.045-3.293zm-.75 4.403l5.407 3.225-5.407 3.052-5.52-3.127 5.542-3.15h-.022zm-9.803.742l9.098-5.145v3.293L68.236 12.3l-2.783-1.65zm2.873 3.203l6.585 3.697a.75.75 0 00.697 0l6.315-3.697 2.85 1.702-9.525 5.31-9.682-5.46 2.76-1.552zm-3.308 2.79l2.558 1.425-2.558 1.432v-2.857z"></path>
  <title>TrueLayer</title>
</svg>