<svg width="150" height="30" viewBox="0 0 150 30" fill="none" xmlns="http://www.w3.org/2000/svg" class="PaymentMethodLogo ">
    <path d="M67.0112 12.4609C67.2027 12.7925 67.5528 12.9753 67.9103 12.9688H82.0897C82.4472 12.9753 82.7973 12.7925 82.9888 12.4609C83.2692 11.9752 83.1028 11.354 82.617 11.0736C82.2932 10.8866 79.7542 9.48707 75 6.875C70.2458 9.48707 67.7068 10.8866 67.383 11.0736C66.8972 11.354 66.7308 11.9752 67.0112 12.4609Z" fill="#4F5B76"></path>
    <path d="M78.0469 14.4922V21.0938H76.5234V14.4922H73.4766V21.0938H71.9531V14.4922H68.9062V21.0938H67.6877C67.2389 21.0938 66.8752 21.4575 66.8752 21.9062V23.125H83.1248V21.9062C83.1248 21.4575 82.7611 21.0938 82.3123 21.0938H81.0938V14.4922H78.0469Z" fill="#4F5B76"></path>
    <title>Bank</title>
</svg>


