<svg xmlns="http://www.w3.org/2000/svg" width="150" height="30" fill="none" viewBox="0 0 150 30" class="PaymentMethodLogo ">
  <path fill="var(--paymentMethodLogoColor, #000)" d="M59.123 9.766v7.038l-7.141-3.563a1.117 1.117 0 00-.986 0l-7.141 3.563V9.766H38.25c-.025 0-.035.035-.015.05l3.317 1.937v7.028c0 .665.823 1.084 1.483.754l8.453-4.22 8.453 4.22c.66.33 1.483-.089 1.483-.754V9.766h-2.302zM75.94 14.754v4.889h-2.396v-1.207c-1.858.862-3.893 1.483-6.224 1.483-2.903 0-4.515-.996-4.515-3.228 0-2.524 2.706-3.342 5.737-3.342 1.76 0 3.49.296 5.002.715-.064-2.105-2.607-2.38-4.041-2.38-1.4 0-3.031.162-5.2.832l-.7-1.809c2.006-.586 3.943-.946 6.21-.946 4.037.005 6.092 1.262 6.126 4.993zm-2.396 2.05v-.96c-1.32-.36-2.868-.671-4.79-.671-2.105 0-3.391.409-3.391 1.449 0 1.123 1.025 1.35 2.706 1.35 1.478.005 3.859-.596 5.475-1.168zM77.393 6.725h2.376v12.923h-2.376V6.725zM81.307 6.725h2.376v12.923h-2.376V6.725zM95.54 16.376h2.49c-.582 2.213-2.78 3.524-6.32 3.524-3.972 0-6.722-1.632-6.722-5.057 0-3.425 2.859-5.057 6.575-5.057 3.765 0 6.61 1.44 6.61 5.574H87.511c.226 1.844 1.71 2.568 4.248 2.568 2.312 0 3.327-.63 3.78-1.552zm-7.9-2.696h7.9c-.419-1.42-1.779-2.036-3.972-2.036-2.07 0-3.475.597-3.928 2.036z"></path>
  <path fill="var(--paymentMethodLogoColor, #000)" d="M109.508 9.786h2.701L106.432 20.3c-1.266 2.356-2.513 3.716-5.066 3.716-1.267 0-2.297-.168-3.362-.384v-2.085c1.267.286 2.194.37 2.923.37 1.434 0 2.179-.42 3.09-2.135l.069-.133h-1.316l-5.401-9.862h2.735l4.692 8.576 4.712-8.576z"></path>
  <title>Walley</title>
</svg>