<svg xmlns="http://www.w3.org/2000/svg" width="150" height="30" fill="none" viewBox="0 0 150 30" class="PaymentMethodLogo ">
  <path fill="var(--paymentMethodLogoColor, #C5A1FE)" d="M77.58 15.006c0-4.38-3.628-7.693-8.095-8.037L35 4.218l4.668 6.282-12.362 4.506L39.67 19.5 35 25.782l34.472-2.751c4.467-.436 8.095-3.657 8.095-8.037"></path>
  <path fill="var(--paymentMethodLogoColor, #1C1C1C)" d="M68.859 19.843c-3.144 0-4.74-1.467-4.74-4.367l-.106-5.205h2.99l-.083 4.918c0 1.353.733 2.155 1.974 2.155 1.229 0 1.974-.756 1.974-2.075l-.095-4.998h2.99l-.107 5.124c0 2.992-1.571 4.46-4.797 4.448zM83.075 19.717l-4.75-5.445.437 5.445h-2.837v-9.446h2.53l4.597 5.25-.45-5.25h2.86v9.446h-2.387zM87.767 10.294h2.8v9.446h-2.8v-9.446zM95.85 19.74v-7.486l-3.072.218v-2.178h8.946v2.166l-3.073-.217v7.486h-2.8v.011zM103.804 19.74v-9.446h8.213v2.19l-5.472-.218v1.81h5.106v1.766h-5.117v1.892l5.554-.218v2.201h-8.284v.023zM117.819 10.294h-3.651v9.446h3.533c3.758 0 5.992-1.788 5.992-4.78v-.023c0-2.947-2.151-4.643-5.874-4.643zm3.049 4.734c0 1.571-1.051 2.43-2.978 2.43h-.933v-4.883h.933c1.915 0 2.978.86 2.978 2.43v.023zM45.365 19.717l.224-4.07-3.828-5.365h3.521l1.655 2.935 1.749-2.935h3.45l-3.84 5.377.224 4.07-3.155-.012zM57.076 19.89c-2.966 0-5.294-2.133-5.294-4.862v-.022c0-2.74 2.34-4.896 5.318-4.896 2.978 0 5.294 2.133 5.294 4.861v.035c0 2.728-2.34 4.883-5.318 4.883zm0-7.464c-1.406 0-2.47 1.09-2.47 2.545v.023c0 1.468 1.076 2.568 2.494 2.568 1.418 0 2.47-1.089 2.47-2.545v-.023c.012-1.467-1.064-2.568-2.494-2.568z"></path>
  <title>Younited</title>
</svg>